<svg width="85" height="89" viewBox="0 0 85 89" fill="none" xmlns="http://www.w3.org/2000/svg">
<path d="M84.0537 67.3063C78.5388 83.8545 67.016 80.7112 63.6986 79.4073C63.114 79.1748 62.783 79.0056 62.783 79.0056C62.8182 78.8224 62.8604 78.6391 62.9027 78.463C66.1919 64.2828 84.0537 67.3063 84.0537 67.3063Z" fill="#62AC5D"/>
<path d="M62.9027 78.4629C70.6221 72.0706 81.5251 68.293 81.9336 68.1591C81.5463 68.3141 71.0025 72.6274 63.6986 79.4073C63.114 79.1748 62.783 79.0056 62.783 79.0056C62.8182 78.8224 62.8604 78.6391 62.9027 78.4629Z" fill="#3D6539"/>
<path d="M81.9124 80.4857C73.6788 86.5961 69.1782 81.1905 68.0231 79.4426C67.8188 79.1325 67.7202 78.9422 67.7202 78.9422C67.7977 78.8647 67.8822 78.7942 67.9597 78.7167C74.3268 72.9939 81.9124 80.4857 81.9124 80.4857Z" fill="#6AD365"/>
<path d="M67.9597 78.7167C73.8338 78.2445 80.3629 80.1051 80.6024 80.1756C80.3629 80.1192 73.8267 78.6392 68.0231 79.4356C67.8188 79.1255 67.7202 78.9352 67.7202 78.9352C67.7977 78.8647 67.8822 78.7872 67.9597 78.7167Z" fill="#3D6539"/>
<path d="M76.7357 61.21C75.7849 71.4293 68.7627 71.1685 66.6849 70.8584C66.3187 70.802 66.1074 70.7527 66.1074 70.7527C66.1003 70.6399 66.1003 70.5342 66.1003 70.4285C66.1003 61.8654 76.7357 61.21 76.7357 61.21Z" fill="#6AD365"/>
<path d="M66.1003 70.4275C69.6713 65.7337 75.4186 62.1182 75.6299 61.9843C75.4256 62.1252 69.9601 66.0015 66.6849 70.8645C66.3187 70.8081 66.1074 70.7588 66.1074 70.7588C66.1074 70.646 66.1003 70.5332 66.1003 70.4275Z" fill="#3D6539"/>
<path d="M23.5166 39.7002C18.3327 56.3541 29.5175 60.5404 32.9757 61.4214C33.5814 61.5765 33.9547 61.6258 33.9547 61.6258C34.0322 61.4567 34.1026 61.2875 34.1731 61.1184C39.7795 47.6783 23.5166 39.7002 23.5166 39.7002Z" fill="#62AC5D"/>
<path d="M34.1729 61.1184C31.6444 51.4206 24.9885 41.9837 24.7419 41.6313C24.9673 41.9837 31.0105 51.6462 32.9755 61.4214C33.5813 61.5765 33.9546 61.6258 33.9546 61.6258C34.032 61.4567 34.1025 61.2875 34.1729 61.1184Z" fill="#3D6539"/>
<path d="M22.5588 55.3815C25.679 65.1568 32.4828 63.3949 34.4479 62.6548C34.793 62.5209 34.9902 62.4223 34.9902 62.4223C34.9691 62.3165 34.948 62.2038 34.9268 62.1051C33.0886 53.7394 22.5588 55.3815 22.5588 55.3815Z" fill="#6AD365"/>
<path d="M34.9195 62.1051C30.4259 58.2852 24.0376 55.9876 23.8052 55.903C24.0306 56.0017 30.2005 58.6094 34.4476 62.6548C34.7927 62.5209 34.9899 62.4222 34.9899 62.4222C34.9688 62.3165 34.9476 62.2108 34.9195 62.1051Z" fill="#3D6539"/>
<path d="M35.7506 0L31.7148 1.92405L35.8704 62.2038L66.079 83.9391L70.143 82.008L70.0796 19.9875L35.7506 0Z" fill="#447CF6"/>
<path d="M31.7148 1.92403L31.8064 64.1278L66.079 83.9391L66.0508 21.9186L31.7148 1.92403Z" fill="#AAC4FA"/>
<path d="M45.0479 68.7723V69.2656C45.0479 69.8718 45.3718 70.4356 45.9001 70.7387C47.0341 71.3941 48.4568 70.5766 48.4568 69.2586V68.7652C48.4568 68.1591 48.1328 67.5953 47.6116 67.2922C46.4706 66.6368 45.0479 67.4614 45.0479 68.7723Z" fill="white"/>
<path d="M64.466 73.6845L64.4449 29.0721C64.4449 28.3532 64.2054 27.6766 63.7758 27.1269C63.5293 26.8097 63.2194 26.5419 62.8602 26.3305L35.3702 10.4448C34.4687 9.92325 33.3347 10.5787 33.3347 11.6218L33.3981 56.0369C33.3981 57.1645 33.9968 58.2006 34.9688 58.7714L62.508 74.8051C63.3814 75.3055 64.466 74.6853 64.466 73.6845Z" fill="white"/>
<path d="M66.079 21.9186L70.143 19.9875L35.7506 0L31.7148 1.92405L66.079 21.9186Z" fill="#89ADF9"/>
<path d="M55.3736 17.7251L52.2112 15.8786V17.9789L55.3736 19.8042V17.7251Z" fill="white"/>
<path d="M42.3364 12.2702L50.1967 16.816V14.7087L42.3293 10.1276L42.3364 12.2702Z" fill="white"/>
<path d="M59.8598 68.575L59.8457 34.1254V28.9311C59.8457 28.2123 59.6063 27.5357 59.1766 26.986C58.9301 26.6688 58.6202 26.3939 58.261 26.1896L30.7711 10.3038C29.8625 9.7823 28.7356 10.4377 28.7356 11.4808L28.7426 16.1465L28.7919 50.4833L28.799 55.896C28.799 57.0236 29.3977 58.0597 30.3696 58.6305L57.9088 74.6643C58.7752 75.1646 59.8598 74.5444 59.8528 73.5436L59.8598 68.575Z" fill="#3969BF"/>
<path d="M58.9439 73.6845C58.9439 74.6853 57.8592 75.3055 56.9999 74.8051L29.4607 58.7714C28.4887 58.2076 27.89 57.1645 27.89 56.0369L27.883 50.6242L27.8337 16.2874L27.8267 11.6218C27.8267 10.5787 28.9536 9.92325 29.8622 10.4448L57.3521 26.3305C57.7113 26.5349 58.0212 26.8097 58.2677 27.1269C58.6903 27.6766 58.9368 28.3532 58.9368 29.0721V34.2663L58.9509 68.7159L58.9439 73.6845Z" fill="#2873FB"/>
<path d="M57.7116 71.2178C57.7116 72.1411 56.7115 72.712 55.9156 72.2538L30.5597 57.4887C29.6652 56.9672 29.1158 56.0087 29.1088 54.9727L29.1018 49.9899L29.0525 18.3735L29.0454 14.0744C29.0454 13.1088 30.0878 12.5098 30.9189 12.989L56.2396 27.6273C56.5706 27.8176 56.8523 28.0713 57.0777 28.3602C57.4721 28.8606 57.6905 29.4879 57.6905 30.1504V34.9288L57.7046 66.6438L57.7116 71.2178Z" fill="white"/>
<path d="M58.9303 34.2656L27.8271 16.2937L27.8201 11.628C27.8201 10.585 28.947 9.92953 29.8556 10.4511L57.3456 26.3368C57.7048 26.5412 58.0147 26.816 58.2612 27.1332C58.6838 27.6829 58.9303 28.3595 58.9303 29.0784V34.2656Z" fill="#2873FB"/>
<path d="M58.9442 73.6845C58.9442 74.6853 57.8596 75.3055 57.0003 74.8051L29.461 58.7715C28.489 58.2076 27.8903 57.1646 27.8903 56.0369L27.8833 50.6242L58.9442 68.7159V73.6845Z" fill="#2873FB"/>
<path d="M51.9927 31.6164L52.0068 63.3314V64.6846L53.2393 65.4035L53.2253 30.9539L51.9927 30.235V31.6164Z" fill="#2873FB"/>
<path d="M34.1803 53.0205L34.131 21.4112V20.0298L32.8984 19.318L32.9477 53.6548L34.1803 54.3737V53.0205Z" fill="#2873FB"/>
<path d="M37.7793 30.3759V50.1097L48.957 43.3439L37.7793 30.3759Z" fill="#FCD600"/>
<path d="M54.3311 34.0902V35.6407L56.5849 36.9516V35.4011L54.3311 34.0902Z" fill="#3969BF"/>
<path d="M54.3311 39.6367L56.5849 40.9476V39.3971L54.3311 38.0862V39.6367Z" fill="#3969BF"/>
<path d="M54.3311 43.6328L56.5849 44.9437V43.3932L54.3311 42.0823V43.6328Z" fill="#3969BF"/>
<path d="M54.3311 47.6289L56.5849 48.9398V47.3893L54.3311 46.0784V47.6289Z" fill="#3969BF"/>
<path d="M54.3311 51.625L56.5849 52.943V51.3925L54.3311 50.0745V51.625Z" fill="#3969BF"/>
<path d="M54.3311 55.6211L56.5849 56.9391V55.3886L54.3311 54.0706V55.6211Z" fill="#3969BF"/>
<path d="M54.3311 59.6243L56.5849 60.9352V59.3846L54.3311 58.0737V59.6243Z" fill="#3969BF"/>
<path d="M54.3311 63.6204L56.5849 64.9313V63.3807L54.3311 62.0699V63.6204Z" fill="#3969BF"/>
<path d="M29.8203 19.9241V21.4746L32.0742 22.7855V21.235L29.8203 19.9241Z" fill="#3969BF"/>
<path d="M29.8203 25.4707L32.0742 26.7816V25.2311L29.8203 23.9202V25.4707Z" fill="#3969BF"/>
<path d="M29.8203 29.4668L32.0742 30.7777V29.2272L29.8203 27.9163V29.4668Z" fill="#3969BF"/>
<path d="M29.8203 33.4629L32.0742 34.7738V33.2233L29.8203 31.9124V33.4629Z" fill="#3969BF"/>
<path d="M29.8203 37.459L32.0742 38.7769V37.2264L29.8203 35.9085V37.459Z" fill="#3969BF"/>
<path d="M29.8203 41.4551L32.0742 42.773V41.2225L29.8203 39.9046V41.4551Z" fill="#3969BF"/>
<path d="M29.8203 45.4582L32.0742 46.7691V45.2186L29.8203 43.9077V45.4582Z" fill="#3969BF"/>
<path d="M29.8203 49.4543L32.0742 50.7652V49.2147L29.8203 47.9038V49.4543Z" fill="#3969BF"/>
<path opacity="0.1" d="M10.1823 89C15.6084 89 20.007 86.4126 20.007 83.2208C20.007 80.029 15.6084 77.4416 10.1823 77.4416C4.75632 77.4416 0.357666 80.029 0.357666 83.2208C0.357666 86.4126 4.75632 89 10.1823 89Z" fill="black"/>
<path d="M24.7774 47.2554C23.3194 47.9884 22.1643 48.6297 21.2417 49.0526C21.0726 49.1301 20.9036 49.2006 20.7486 49.2711C20.2697 49.4825 19.8753 49.6587 19.5372 49.8067C18.1919 50.3846 17.8327 50.4621 17.4031 50.5538C17.396 50.5538 17.382 50.5608 17.3749 50.5608C17.1918 50.596 16.896 50.3987 16.5508 50.0745C15.924 49.4825 15.1422 48.4676 14.5858 47.6994C14.1561 47.1003 13.8533 46.6563 13.8533 46.6563L13.8814 45.571L13.9026 44.831L13.98 41.7511C14.2054 41.7793 14.4872 41.9766 14.7971 42.2867C14.7971 42.2867 14.7971 42.2867 14.8041 42.2938C16.1142 43.6046 17.9384 46.8819 18.206 47.3682C18.2271 47.4104 18.2412 47.4316 18.2412 47.4316L24.4464 45.5851C24.4252 45.578 24.6225 46.466 24.7774 47.2554Z" fill="#FFBD8B"/>
<path d="M18.4172 46.6986C18.4172 46.6986 18.3397 46.9735 18.1918 47.3682C17.9876 47.9108 17.6636 48.6861 17.241 49.3063C17.0297 49.6164 16.7973 49.8842 16.5507 50.0675C16.4662 50.1309 16.3747 50.1802 16.2901 50.2225L14.5857 47.6924L14.4871 46.7057L13.9729 41.7511C14.1983 41.8145 14.473 42.0118 14.7899 42.2867C14.7899 42.2867 14.7899 42.2867 14.797 42.2938C16.262 43.5976 18.4172 46.6986 18.4172 46.6986Z" fill="#FCD600"/>
<g opacity="0.4">
<path opacity="0.4" d="M19.5442 49.7996C18.199 50.3776 17.8398 50.4551 17.4101 50.5467C17.4031 50.5467 17.389 50.5538 17.382 50.5538C17.1988 50.589 16.903 50.3917 16.5579 50.0675C16.4734 50.1309 16.3818 50.1802 16.2973 50.2225L14.5928 47.6924C14.1561 47.1004 13.8533 46.6563 13.8533 46.6563L13.8814 45.571C14.0716 45.9868 14.2759 46.3603 14.4872 46.7057C15.2901 48.0095 16.2269 48.8341 17.2481 49.2993C17.9736 49.6375 18.7484 49.7856 19.5442 49.7996Z" fill="#2873FB"/>
</g>
<path d="M25.6365 45.4864C25.6365 45.4864 25.7774 44.9367 25.3689 44.8239C25.059 44.7393 24.742 45.4018 24.3758 45.5992C24.0236 45.7895 24.6082 47.2554 24.6082 47.2554C27.4889 47.7417 27.3339 45.5146 25.6365 45.4864Z" fill="#FFBD8B"/>
<path d="M8.54234 32.3C8.59868 32.1731 8.6339 32.0322 8.6339 31.8842C8.6339 31.3204 8.17609 30.8623 7.61262 30.8623C7.30272 30.8623 7.02099 31.0032 6.83786 31.2217C6.66882 31.0314 6.42231 30.9116 6.14762 30.9116C5.6405 30.9116 5.22495 31.3274 5.22495 31.8348C5.22495 31.8842 5.23199 31.9335 5.23904 31.9828C5.08408 31.9335 4.92209 31.9053 4.75305 31.9053C3.86559 31.9053 3.14014 32.6242 3.14014 33.5193C3.14014 34.2099 3.57682 34.802 4.19663 35.0345C4.18959 35.0839 4.18254 35.1332 4.18254 35.1825C4.18254 35.7323 4.62627 36.1763 5.17565 36.1763C5.61233 36.1763 5.97858 35.8944 6.1124 35.5067C6.42935 35.7182 6.81673 35.845 7.23229 35.845C8.34512 35.845 9.24667 34.9429 9.24667 33.8294C9.24667 33.2162 8.97198 32.6735 8.54234 32.3Z" fill="#362B65"/>
<path d="M14.6208 82.1631C13.9236 81.0777 12.9586 79.795 12.9586 79.795L12.9727 77.8146L10.5569 77.8005C10.5921 77.9485 10.6132 78.0683 10.6203 78.1529C10.6344 78.2727 10.6414 78.3925 10.6484 78.5053C10.6696 78.9211 10.6414 79.3158 10.6203 79.8162C10.6132 79.9994 10.6062 80.1897 10.6062 80.4011C10.5076 82.5296 10.8527 83.5726 10.8527 83.5726C10.8527 83.5726 11.2542 83.6149 11.2964 83.5304C11.3387 83.4458 11.4373 82.6987 11.4373 82.6987C11.4373 82.6987 11.9655 83.622 12.1839 83.8687C12.4022 84.1224 13.4658 84.5452 14.3955 84.503C15.3252 84.4677 15.6351 84.221 15.2407 83.2555C15.128 82.9947 14.8955 82.6 14.6208 82.1631Z" fill="#362B65"/>
<path d="M14.5361 65.8757L12.9655 77.5468L12.9584 78.5264L10.6412 78.5123C10.6341 78.3925 10.6271 78.2798 10.613 78.1599C10.5285 77.4481 9.65511 74.9884 9.81007 70.8162C9.96502 66.6439 8.08446 62.0487 8.40845 59.3424C8.73244 56.636 8.38732 55.3392 8.38732 55.3392L14.5854 55.3745C15.6208 62.5068 14.5361 65.8757 14.5361 65.8757Z" fill="#28224C"/>
<path d="M14.6207 82.163C14.5432 83.6008 12.9726 83.4105 10.6201 79.8232C10.6412 79.3228 10.6694 78.9281 10.6483 78.5123L12.9655 78.5264L12.9585 79.802C12.9585 79.795 13.9234 81.0847 14.6207 82.163Z" fill="#FFBD8B"/>
<path d="M9.26795 84.0942C8.68336 82.896 7.84521 81.4583 7.84521 81.4583L8.09877 79.4285L5.61954 79.1255C5.63363 79.2805 5.64772 79.4074 5.64772 79.499C5.64772 79.6259 5.64067 79.7457 5.63363 79.8655C5.60546 80.2954 5.52798 80.6971 5.44346 81.2116C5.41529 81.3949 5.38712 81.5922 5.35894 81.8107C4.99974 83.9814 5.23216 85.0949 5.23216 85.0949C5.23216 85.0949 5.63363 85.1866 5.68998 85.109C5.74632 85.0315 5.92945 84.2703 5.92945 84.2703C5.92945 84.2703 6.35908 85.2782 6.5563 85.5671C6.75351 85.8491 7.78887 86.4129 8.74675 86.4904C9.70463 86.5679 10.0568 86.3495 9.76802 85.3134C9.69054 85.0104 9.50038 84.5664 9.26795 84.0942Z" fill="#362B65"/>
<path d="M11.1555 67.3557L8.13395 79.1466L8.00717 80.1544L5.63357 79.8584C5.64062 79.7386 5.64766 79.6188 5.64766 79.492C5.64766 78.7519 5.04898 76.1161 5.71105 71.8522C6.37312 67.5882 4.99968 62.6407 5.66175 59.8991C6.32382 57.1575 6.11956 55.7832 6.11956 55.7832L12.4867 56.5655C12.6698 64.0291 11.1555 67.3557 11.1555 67.3557Z" fill="#362B65"/>
<path d="M9.26786 84.0942C9.0143 85.5601 7.42252 85.1725 5.44336 81.2046C5.52084 80.6971 5.59831 80.2883 5.63353 79.8584L8.00711 80.1544L7.84512 81.4583C7.84512 81.4583 8.68327 82.896 9.26786 84.0942Z" fill="#FFBD8B"/>
<path d="M14.2615 52.8443C14.0784 54.9093 15.1349 56.2343 15.318 58.1161C13.4375 60.6392 5.23908 59.3071 5.23908 59.3071C5.28838 58.6517 5.3729 58.109 5.4715 57.6439V57.6368C5.50672 57.4818 5.54194 57.3408 5.57715 57.2069C5.70393 56.7347 5.85184 56.3541 6.00679 56.044C6.14766 55.7409 6.29557 55.5013 6.42235 55.2758C6.72521 54.7472 6.94355 54.3314 6.8872 53.5843C6.74634 51.7942 6.8379 50.3776 6.06314 48.7284C5.97862 48.5452 5.8941 48.3619 5.81662 48.1928C5.19681 46.8184 4.85169 45.7472 4.6897 44.2883V44.0557C4.91508 43.8443 5.14047 43.6469 5.35177 43.4707C5.44333 43.4073 5.54193 43.3509 5.6335 43.2945C5.65463 43.2804 5.66872 43.2734 5.68984 43.2593C9.71861 40.8631 13.7051 41.4833 14.2122 41.9061C14.7616 42.3642 14.67 44.9296 14.7616 45.7119C14.8532 46.4942 15.8604 47.5021 15.635 49.2852C15.4096 51.0542 14.4447 50.7793 14.2615 52.8443Z" fill="#FCD600"/>
<g opacity="0.4">
<path opacity="0.4" d="M10.7821 51.9704C10.7821 51.9704 10.8314 53.5773 8.26064 54.5851C6.43643 55.304 5.79549 56.5514 5.57715 57.2069C5.70393 56.7347 5.85184 56.3541 6.00679 56.044C6.14766 55.7409 6.29557 55.5013 6.42234 55.2758C6.72521 54.7472 6.94355 54.3314 6.8872 53.5843C6.74634 51.7942 6.8379 50.3776 6.06314 48.7284C5.97862 48.5452 5.8941 48.3619 5.81662 48.1928C5.19681 46.8184 4.85169 45.7472 4.6897 44.2883V44.0557C4.91508 43.8443 5.14047 43.6469 5.35177 43.4707C5.44333 43.4073 5.54193 43.3509 5.6335 43.2945C5.65463 43.2804 5.66871 43.2734 5.68984 43.2593C5.80958 43.2452 5.92227 43.2523 6.01384 43.2804C7.02102 43.6046 7.25345 47.9108 8.16908 49.3768C9.0847 50.8427 9.77494 51.6673 11.8316 51.1176H12.1556C11.5146 51.9281 10.7821 51.9704 10.7821 51.9704Z" fill="#2873FB"/>
</g>
<path d="M11.6978 43.4919C10.1835 44.4081 8.35229 42.0259 8.35229 42.0259L8.58472 39.3196L8.76081 39.3901L11.2893 40.3768V41.5255C11.2893 41.5255 11.3809 41.6031 11.5077 41.737C11.881 42.1317 12.529 42.9915 11.6978 43.4919Z" fill="#FFBD8B"/>
<g opacity="0.55">
<path opacity="0.55" d="M11.5009 41.737C10.9304 42.8364 9.27518 42.1458 8.6272 39.5592L8.75398 39.3971L11.2825 40.3838V41.5326C11.2896 41.5256 11.3811 41.6031 11.5009 41.737Z" fill="#F86C7D"/>
</g>
<path d="M8.16927 36.1692C8.98615 36.1692 9.64836 35.5066 9.64836 34.6892C9.64836 33.8718 8.98615 33.2092 8.16927 33.2092C7.3524 33.2092 6.69019 33.8718 6.69019 34.6892C6.69019 35.5066 7.3524 36.1692 8.16927 36.1692Z" fill="#FCD600"/>
<path d="M13.1345 35.8098C13.1345 35.8098 14.1206 41.0392 11.1695 41.448C7.95068 41.8991 7.95068 36.9727 7.95068 36.9727L10.9934 35.0063L12.2471 34.7385L13.1345 35.8098Z" fill="#FFBD8B"/>
<path d="M13.8532 35.1825C13.4024 32.2295 8.57778 31.8701 7.50016 34.2875C5.80273 36.1692 7.95093 38.4034 7.95093 38.4034C7.95093 38.4034 12.5361 38.4738 12.9164 36.2538C13.4447 36.8317 13.3038 37.3321 13.3038 37.3321C13.3038 37.3321 14.1208 37.1559 13.8532 35.1825Z" fill="#362B65"/>
<path d="M9.78572 38.3792C9.87336 37.9165 9.56952 37.4703 9.10708 37.3826C8.64464 37.2949 8.19872 37.5989 8.11108 38.0616C8.02344 38.5244 8.32727 38.9706 8.78971 39.0583C9.25215 39.146 9.69808 38.842 9.78572 38.3792Z" fill="#362B65"/>
<path d="M9.44284 38.6769C9.56926 38.2232 9.30419 37.7529 8.85079 37.6264C8.39739 37.4999 7.92735 37.7651 7.80093 38.2188C7.67451 38.6725 7.93957 39.1429 8.39297 39.2694C8.84637 39.3959 9.31642 39.1306 9.44284 38.6769Z" fill="#FFBD8B"/>
<path d="M6.12684 55.5154C6.20432 56.0017 7.39463 55.8678 7.48619 56.2766C7.57775 56.6853 7.02838 56.8263 7.02838 56.8263C7.81018 58.3416 5.91555 59.5256 4.98584 56.7558" fill="#FFBD8B"/>
<path d="M5.76742 48.228L3.87983 50.6383L6.24637 55.8326C6.24637 55.8326 6.26749 55.748 5.95759 56.0863C5.64769 56.4316 5.61247 56.9179 5.02788 56.9602C5.02788 56.9602 1.24565 52.5342 0.555406 51.0824C-0.0573588 49.7926 2.38666 46.2123 4.6405 44.0909C4.86589 43.8795 5.09127 43.6822 5.30257 43.506C5.36596 43.4566 5.42935 43.4003 5.49273 43.358C5.52795 43.3509 5.55613 43.3368 5.59134 43.3298C6.49992 43.1184 6.95069 43.8372 6.95069 43.8372C8.45091 45.6556 6.38723 47.4386 6.38723 47.4386L5.76742 48.228Z" fill="#FFBD8B"/>
<path d="M5.88741 43.1677C4.33084 43.7174 1.25293 47.192 1.25293 47.192C2.16151 48.7213 4.92248 50.3846 4.92248 50.3846C4.92248 50.3846 7.82431 46.6422 8.16239 45.9022C8.16239 45.9022 7.97222 43.6117 6.49313 43.0408" fill="#FCD600"/>
</svg>
