<svg width="25" height="25" viewBox="0 0 25 25" fill="none" xmlns="http://www.w3.org/2000/svg">
<path fill-rule="evenodd" clip-rule="evenodd" d="M12.4692 5.55109L7.62615 10.3206L4.80815 7.54526L12.4692 0L20.1328 7.54778L17.3147 10.3231L12.4692 5.55109ZM5.636 12.2799L2.818 9.50473L0 12.28L2.818 15.0554L5.636 12.2799ZM12.4692 19.0096L7.62615 14.2401L4.80401 17.0118L4.80795 17.0156L12.4692 24.5607L20.1328 17.0131L20.1341 17.0115L17.3146 14.2378L12.4692 19.0096ZM22.1207 15.0566L24.9385 12.2812L22.1205 9.50589L19.3025 12.2814L22.1207 15.0566ZM15.3276 12.2788H15.3288L12.4693 9.46253L9.61224 12.2843L12.4693 15.098L15.3288 12.2817L15.3302 12.2802L15.3276 12.2788Z" fill="#F4BB2B"/>
</svg>
