<svg width="28" height="24" viewBox="0 0 28 24" fill="none" xmlns="http://www.w3.org/2000/svg">
<path d="M21.1873 7.36047C20.6879 7.0814 20.0102 7.0814 19.4395 7.36047L15.3376 9.69767L12.5554 11.1977L8.56051 13.5698C8.06115 13.8488 7.38344 13.8488 6.81274 13.5698L3.67389 11.7209C3.17452 11.4419 2.78217 10.8488 2.78217 10.2209V6.62791C2.78217 6.06977 3.06752 5.47674 3.67389 5.12791L6.77707 3.34884C7.27643 3.06977 7.95414 3.06977 8.52484 3.34884L11.6637 5.19767C12.1631 5.47674 12.5554 6.06977 12.5554 6.69767V9.06977L15.3376 7.5V5.05814C15.3376 4.5 15.0522 3.90698 14.4459 3.55814L8.63185 0.209302C8.13248 -0.0697674 7.45478 -0.0697674 6.88408 0.209302L0.89172 3.62791C0.28535 3.90698 0 4.5 0 5.05814V11.7907C0 12.3488 0.28535 12.9419 0.89172 13.2907L6.77707 16.6395C7.27643 16.9186 7.95414 16.9186 8.52484 16.6395L12.5554 14.3372L15.3376 12.7674L19.3682 10.4651C19.8675 10.186 20.5452 10.186 21.1159 10.4651L24.2548 12.2442C24.7541 12.5233 25.1465 13.1163 25.1465 13.7442V17.3023C25.1465 17.8605 24.8611 18.4535 24.2548 18.8023L21.1873 20.5814C20.6879 20.8605 20.0102 20.8605 19.4395 20.5814L16.3006 18.8023C15.8013 18.5233 15.4089 17.9302 15.4089 17.3023V15L12.6268 16.5698V18.9419C12.6268 19.5 12.9121 20.093 13.5185 20.4419L19.4395 23.7907C19.9389 24.0698 20.6166 24.0698 21.1873 23.7907L27.1083 20.4767C27.6076 20.1977 28 19.6047 28 18.9767V12.2093C28 11.6512 27.7146 11.0581 27.1083 10.7093L21.1873 7.36047Z" fill="#8248E5"/>
</svg>