<svg width="20" height="20" viewBox="0 0 20 20" fill="none" xmlns="http://www.w3.org/2000/svg">
<path fill-rule="evenodd" clip-rule="evenodd" d="M5.72168 17.9641L8.34199 18.7036V17.7365L8.55589 17.509H10.0532V18.6467V19.4431H8.44894L6.47034 18.5329L5.72168 17.9641Z" fill="#CDBDB2"/>
<path fill-rule="evenodd" clip-rule="evenodd" d="M14.2783 17.9641L11.7114 18.7036V17.7365L11.4975 17.509H10.0002V18.6467V19.4431H11.6045L13.5831 18.5329L14.2783 17.9641Z" fill="#CDBDB2"/>
<path fill-rule="evenodd" clip-rule="evenodd" d="M8.55668 15.8593L8.34277 17.7365L8.61015 17.509H11.3909L11.7117 17.7365L11.4978 15.8593L11.07 15.5748L8.931 15.6317L8.55668 15.8593Z" fill="#393939"/>
<path fill-rule="evenodd" clip-rule="evenodd" d="M7.1123 3.17365L8.39572 6.35928L8.98395 15.6317H11.0695L11.7112 6.35928L12.8877 3.17365H7.1123Z" fill="#F89C35"/>
<path fill-rule="evenodd" clip-rule="evenodd" d="M1.49732 10.1707L0 14.7784L3.74329 14.5509H6.14969V12.5599L6.04274 8.46407L5.50799 8.91916L1.49732 10.1707Z" fill="#F89D35"/>
<path fill-rule="evenodd" clip-rule="evenodd" d="M4.33105 10.6827L8.71605 10.7965L8.23477 13.1857L6.14923 12.6168L4.33105 10.6827Z" fill="#D87C30"/>
<path fill-rule="evenodd" clip-rule="evenodd" d="M4.33105 10.7395L6.14923 12.5599V14.3802L4.33105 10.7395Z" fill="#EA8D3A"/>
<path fill-rule="evenodd" clip-rule="evenodd" d="M6.14941 12.6168L8.28844 13.1856L8.98362 15.6317L8.50234 15.9162L6.14941 14.4371V12.6168Z" fill="#F89D35"/>
<path fill-rule="evenodd" clip-rule="evenodd" d="M6.14949 14.4372L5.72168 17.9641L8.55589 15.8593L6.14949 14.4372Z" fill="#EB8F35"/>
<path fill-rule="evenodd" clip-rule="evenodd" d="M8.7164 10.7964L8.98377 15.6317L8.18164 13.1572L8.7164 10.7964Z" fill="#EA8E3A"/>
<path fill-rule="evenodd" clip-rule="evenodd" d="M3.68945 14.4941L6.14933 14.4372L5.72152 17.9641L3.68945 14.4941Z" fill="#D87C30"/>
<path fill-rule="evenodd" clip-rule="evenodd" d="M1.17646 19.5L5.72189 17.9641L3.68982 14.494L0 14.7784L1.17646 19.5Z" fill="#EB8F35"/>
<path fill-rule="evenodd" clip-rule="evenodd" d="M8.3952 6.35928L6.09575 8.40719L4.33105 10.6826L8.71605 10.8533L8.3952 6.35928Z" fill="#E8821E"/>
<path fill-rule="evenodd" clip-rule="evenodd" d="M5.72168 17.9641L8.55589 15.8593L8.34199 17.6796V18.7036L6.41686 18.3054L5.72168 17.9641Z" fill="#DFCEC3"/>
<path fill-rule="evenodd" clip-rule="evenodd" d="M14.2783 17.9641L11.4976 15.8593L11.7115 17.6796V18.7036L13.6366 18.3054L14.2783 17.9641Z" fill="#DFCEC3"/>
<path fill-rule="evenodd" clip-rule="evenodd" d="M7.54019 11.8204L8.12842 13.1287L6.04287 12.5599L7.54019 11.8204Z" fill="#393939"/>
<path fill-rule="evenodd" clip-rule="evenodd" d="M1.12305 0.5L8.39573 6.35929L7.16579 3.17366L1.12305 0.5Z" fill="#E88F35"/>
<path fill-rule="evenodd" clip-rule="evenodd" d="M1.12272 0.5L0.160156 3.62874L0.694912 7.04192L0.320583 7.26946L0.855339 7.78144L0.427534 8.17965L1.01577 8.74851L0.641437 9.08983L1.49705 10.2276L5.50772 8.91917C7.46849 7.2505 8.43105 6.39721 8.3954 6.35928C8.35975 6.32136 5.93552 4.36827 1.12272 0.5Z" fill="#8E5A30"/>
<path fill-rule="evenodd" clip-rule="evenodd" d="M18.5027 10.1707L20 14.7784L16.2567 14.5509H13.8503V12.5599L13.9573 8.46407L14.492 8.91916L18.5027 10.1707Z" fill="#F89D35"/>
<path fill-rule="evenodd" clip-rule="evenodd" d="M15.6685 10.6827L11.2835 10.7965L11.7647 13.1857L13.8503 12.6168L15.6685 10.6827Z" fill="#D87C30"/>
<path fill-rule="evenodd" clip-rule="evenodd" d="M15.6685 10.7395L13.8503 12.5599V14.3802L15.6685 10.7395Z" fill="#EA8D3A"/>
<path fill-rule="evenodd" clip-rule="evenodd" d="M13.8506 12.6168L11.7116 13.1856L11.0164 15.6317L11.4977 15.9162L13.8506 14.4371V12.6168Z" fill="#F89D35"/>
<path fill-rule="evenodd" clip-rule="evenodd" d="M13.8505 14.4372L14.2783 17.9641L11.4976 15.9162L13.8505 14.4372Z" fill="#EB8F35"/>
<path fill-rule="evenodd" clip-rule="evenodd" d="M11.2836 10.7964L11.0162 15.6317L11.8184 13.1572L11.2836 10.7964Z" fill="#EA8E3A"/>
<path fill-rule="evenodd" clip-rule="evenodd" d="M16.3105 14.4941L13.8507 14.4372L14.2785 17.9641L16.3105 14.4941Z" fill="#D87C30"/>
<path fill-rule="evenodd" clip-rule="evenodd" d="M18.8235 19.5L14.2781 17.9641L16.3102 14.494L20 14.7784L18.8235 19.5Z" fill="#EB8F35"/>
<path fill-rule="evenodd" clip-rule="evenodd" d="M11.6043 6.35928L13.9038 8.40719L15.6685 10.6826L11.2835 10.8533L11.6043 6.35928Z" fill="#E8821E"/>
<path fill-rule="evenodd" clip-rule="evenodd" d="M12.4603 11.8204L11.8721 13.1287L13.9576 12.5599L12.4603 11.8204Z" fill="#393939"/>
<path fill-rule="evenodd" clip-rule="evenodd" d="M18.877 0.5L11.6043 6.35929L12.8342 3.17366L18.877 0.5Z" fill="#E88F35"/>
<path fill-rule="evenodd" clip-rule="evenodd" d="M18.8768 0.5L19.8394 3.62874L19.3046 7.04192L19.6789 7.26946L19.1442 7.78144L19.572 8.17965L18.9837 8.74851L19.3581 9.08983L18.5025 10.2276L14.4918 8.91917C12.531 7.2505 11.5685 6.39721 11.6041 6.35928C11.6398 6.32136 14.064 4.36827 18.8768 0.5Z" fill="#8E5A30"/>
</svg>
