<!-- Generated by IcoMoon.io -->
<svg version="1.1" xmlns="http://www.w3.org/2000/svg" width="1024" height="1024" viewBox="0 0 1024 1024">
<title></title>
<g id="icomoon-ignore">
</g>
<path fill="#3b99fc" d="M209.634 320.818c166.992-163.499 437.741-163.499 604.733 0l20.098 19.677c8.35 8.175 8.35 21.429 0 29.604l-68.75 67.313c-4.175 4.088-10.944 4.088-15.118 0l-27.657-27.078c-116.498-114.062-305.379-114.062-421.877 0l-29.619 28.999c-4.175 4.088-10.944 4.088-15.118 0l-68.75-67.313c-8.35-8.175-8.35-21.429 0-29.604l22.059-21.598zM956.55 460.027l61.188 59.908c8.349 8.175 8.35 21.429 0 29.604l-275.901 270.135c-8.349 8.175-21.887 8.175-30.237 0 0 0 0 0 0 0l-195.818-191.722c-2.087-2.044-5.472-2.044-7.559 0 0 0 0 0 0 0l-195.814 191.722c-8.349 8.175-21.887 8.175-30.237 0 0 0 0 0 0 0l-275.909-270.138c-8.35-8.175-8.35-21.429 0-29.604l61.188-59.908c8.35-8.175 21.887-8.175 30.237 0l195.821 191.725c2.087 2.044 5.472 2.044 7.559 0 0 0 0 0 0 0l195.811-191.725c8.349-8.175 21.887-8.175 30.237-0.001 0 0 0 0 0.001 0.001l195.821 191.726c2.087 2.044 5.472 2.044 7.559 0l195.818-191.722c8.35-8.175 21.887-8.175 30.237 0z"></path>
</svg>
