<!-- Generated by IcoMoon.io -->
<svg version="1.1" xmlns="http://www.w3.org/2000/svg" width="448" height="448" viewBox="0 0 448 448">
<title></title>

<path fill="#206EFF" d="M374.5 176.75c0-4.958-1.75-9.917-5.25-13.417l-26.542-26.25c-3.5-3.5-8.167-5.542-13.125-5.542s-9.625 2.042-13.125 5.542l-119 118.708-65.917-65.917c-3.5-3.5-8.167-5.542-13.125-5.542s-9.625 2.042-13.125 5.542l-26.542 26.25c-3.5 3.5-5.25 8.458-5.25 13.417s1.75 9.625 5.25 13.125l105.583 105.583c3.5 3.5 8.458 5.542 13.125 5.542 4.958 0 9.917-2.042 13.417-5.542l158.375-158.375c3.5-3.5 5.25-8.167 5.25-13.125zM448 224c0 123.667-100.333 224-224 224s-224-100.333-224-224 100.333-224 224-224 224 100.333 224 224z"></path>
</svg>
