<svg width="15" height="13" viewBox="0 0 15 13" fill="none" xmlns="http://www.w3.org/2000/svg">
<path d="M10.8781 7.08317H10.3721C10.2982 7.08317 10.2375 7.10684 10.1903 7.15441C10.1428 7.20171 10.1191 7.26232 10.1191 7.33614V9.86589C10.1191 10.2137 9.99532 10.5115 9.74763 10.7592C9.49995 11.0069 9.20212 11.1306 8.85426 11.1306H2.27675C1.92891 11.1306 1.63111 11.0069 1.38337 10.7592C1.13569 10.5115 1.01186 10.2138 1.01186 9.86589V3.28848C1.01186 2.94064 1.13566 2.64295 1.38337 2.39524C1.63111 2.1475 1.92891 2.0237 2.27675 2.0237H7.8422C7.9161 2.0237 7.97674 1.99992 8.02412 1.95254C8.0715 1.90511 8.09517 1.84455 8.09517 1.7707V1.26467C8.09517 1.19096 8.0715 1.1303 8.02412 1.08295C7.97674 1.03552 7.9161 1.01184 7.8422 1.01184H2.27675C1.64964 1.01184 1.11334 1.23452 0.667929 1.67985C0.22268 2.12516 0 2.66145 0 3.28856V9.866C0 10.4931 0.22268 11.0295 0.667957 11.4746C1.11337 11.92 1.64966 12.1428 2.27678 12.1428H8.85426C9.48134 12.1428 10.0177 11.92 10.4631 11.4746C10.9084 11.0295 11.1311 10.4931 11.1311 9.866V7.33633C11.1311 7.26243 11.1074 7.20179 11.0598 7.15441C11.0124 7.10684 10.9518 7.08317 10.8781 7.08317Z" fill="#2873FB"/>
<path d="M14.0168 0.150188C13.9166 0.0500351 13.7979 0 13.661 0H9.61335C9.47634 0 9.35769 0.0500351 9.25762 0.150188C9.15747 0.250286 9.10732 0.368881 9.10732 0.505916C9.10732 0.642952 9.15747 0.761574 9.25762 0.861727L10.6489 2.25307L5.49461 7.40752C5.44183 7.46021 5.41553 7.52085 5.41553 7.58924C5.41553 7.65788 5.44192 7.7185 5.49461 7.77119L6.39585 8.67232C6.44854 8.72501 6.50918 8.75129 6.57769 8.75129C6.64619 8.75129 6.70686 8.72504 6.75952 8.67232L11.9139 3.51796L13.3053 4.90931C13.4054 5.00946 13.524 5.05955 13.661 5.05955C13.7981 5.05955 13.9167 5.00946 14.0169 4.90931C14.117 4.80918 14.1671 4.69061 14.1671 4.55358V0.505916C14.167 0.368797 14.1168 0.250286 14.0168 0.150188Z" fill="#2873FB"/>
</svg>
