<svg width="18" height="17" viewBox="0 0 18 17" fill="none" xmlns="http://www.w3.org/2000/svg">
<path d="M17.4582 14.0484C17.5795 14.272 17.6484 14.5283 17.6484 14.8008C17.6484 15.6744 16.94 16.3828 16.0664 16.3828H1.93359C1.05996 16.3828 0.351562 15.6744 0.351562 14.8008C0.351562 14.5283 0.420469 14.272 0.541758 14.0484L7.60816 1.18125C7.8757 0.686953 8.39848 0.351562 9 0.351562C9.60152 0.351562 10.1243 0.686953 10.3918 1.18125L17.4582 14.0484Z" fill="#FFDB43"/>
<path d="M7.94531 12.1641H10.0547V14.2734H7.94531V12.1641Z" fill="#8690AF"/>
<path d="M7.94556 4.78125H10.0549V10.0547H7.94556V4.78125Z" fill="#8690AF"/>
<path d="M7.59375 14.2734C7.59375 14.4676 7.75118 14.625 7.94531 14.625H10.0547C10.2488 14.625 10.4062 14.4676 10.4062 14.2734V12.1641C10.4062 11.9699 10.2488 11.8125 10.0547 11.8125H7.94531C7.75118 11.8125 7.59375 11.9699 7.59375 12.1641V14.2734ZM8.29688 12.5156H9.70312V13.9219H8.29688V12.5156Z" fill="black"/>
<path d="M7.94531 10.4062H10.0547C10.2488 10.4062 10.4062 10.2489 10.4062 10.0547V4.78125C10.4062 4.58708 10.2488 4.42969 10.0547 4.42969H7.94531C7.75118 4.42969 7.59375 4.58708 7.59375 4.78125V10.0547C7.59375 10.2489 7.75118 10.4062 7.94531 10.4062ZM8.29688 5.13281H9.70312V9.70312H8.29688V5.13281Z" fill="black"/>
<path d="M9 16.7344C9.19416 16.7344 9.35156 16.577 9.35156 16.3828C9.35156 16.1886 9.19416 16.0312 9 16.0312C8.80584 16.0312 8.64844 16.1886 8.64844 16.3828C8.64844 16.577 8.80584 16.7344 9 16.7344Z" fill="black"/>
<path d="M10.701 1.01391C10.3626 0.388512 9.71075 0 9 0C8.28925 0 7.63745 0.388512 7.30002 1.01204L0.232734 13.8808C0.0804727 14.1615 0 14.4796 0 14.8008C0 15.867 0.86741 16.7344 1.93359 16.7344H7.41797C7.6121 16.7344 7.76953 16.577 7.76953 16.3828C7.76953 16.1886 7.6121 16.0312 7.41797 16.0312H1.93359C1.25511 16.0312 0.703125 15.4793 0.703125 14.8008C0.703125 14.5963 0.754172 14.3942 0.849937 14.2177L7.91736 1.34859C8.13284 0.950449 8.54768 0.703125 9 0.703125C9.45232 0.703125 9.86716 0.950449 10.0837 1.35049L17.1492 14.2161C17.2458 14.3942 17.2969 14.5963 17.2969 14.8008C17.2969 15.4793 16.7449 16.0312 16.0664 16.0312H10.582C10.3879 16.0312 10.2305 16.1886 10.2305 16.3828C10.2305 16.577 10.3879 16.7344 10.582 16.7344H16.0664C17.1326 16.7344 18 15.867 18 14.8008C18 14.4796 17.9195 14.1615 17.7664 13.8792L10.701 1.01391Z" fill="black"/>
</svg>
