<svg width="196" height="185" viewBox="0 0 196 185" fill="none" xmlns="http://www.w3.org/2000/svg">
<path opacity="0.05" d="M97.7888 184.983C151.796 184.983 195.578 181.62 195.578 177.472C195.578 173.324 151.796 169.961 97.7888 169.961C43.7816 169.961 0 173.324 0 177.472C0 181.62 43.7816 184.983 97.7888 184.983Z" fill="#012938"/>
<path d="M90.4209 63.8481C103.87 63.8481 114.772 52.9455 114.772 39.4965C114.772 26.0476 103.87 15.145 90.4209 15.145C76.9719 15.145 66.0693 26.0476 66.0693 39.4965C66.0693 52.9455 76.9719 63.8481 90.4209 63.8481Z" fill="#1E6DFE"/>
<path d="M144.499 40.6339C147.658 27.5615 139.621 14.4033 126.549 11.2441C113.477 8.08492 100.318 16.1212 97.1591 29.1936C94 42.266 102.036 55.4243 115.109 58.5835C128.181 61.7426 141.339 53.7063 144.499 40.6339Z" fill="#1E6DFE"/>
<path d="M117.235 63.5416C121.178 47.3153 111.22 30.9651 94.9933 27.0225C78.767 23.0799 62.4168 33.0378 58.4742 49.2641C54.5316 65.4905 64.4895 81.8407 80.7158 85.7833C96.9422 89.7259 113.292 79.768 117.235 63.5416Z" fill="#4B83EB"/>
<path d="M111.796 54.36C124.152 49.049 129.863 34.7274 124.552 22.3718C119.241 10.0162 104.919 4.30549 92.5636 9.61649C80.2081 14.9275 74.4973 29.2491 79.8083 41.6047C85.1193 53.9602 99.4409 59.671 111.796 54.36Z" fill="#4B83EB"/>
<path d="M131.183 69.4441C146.191 69.4441 158.358 57.2778 158.358 42.2699C158.358 27.262 146.191 15.0957 131.183 15.0957C116.176 15.0957 104.009 27.262 104.009 42.2699C104.009 57.2778 116.176 69.4441 131.183 69.4441Z" fill="#4B83EB"/>
<path d="M141.516 90.5432C155.282 90.5432 166.442 79.3836 166.442 65.6175C166.442 51.8515 155.282 40.6919 141.516 40.6919C127.75 40.6919 116.591 51.8515 116.591 65.6175C116.591 79.3836 127.75 90.5432 141.516 90.5432Z" fill="#1E6DFE"/>
<path d="M113.095 90.3184C116.33 76.9378 108.106 63.4682 94.725 60.2332C81.3444 56.9981 67.8748 65.2228 64.6397 78.6033C61.4047 91.9839 69.6293 105.454 83.0099 108.689C96.3905 111.924 109.86 103.699 113.095 90.3184Z" fill="#1E6DFE"/>
<path d="M131.631 100.978C133.443 89.6556 125.732 79.0079 114.41 77.196C103.087 75.3842 92.4391 83.0944 90.6273 94.4172C88.8155 105.74 96.5256 116.388 107.848 118.2C119.171 120.011 129.819 112.301 131.631 100.978Z" fill="#1E6DFE"/>
<path d="M158.561 89.8159C161.654 76.4023 153.288 63.0208 139.874 59.9276C126.461 56.8344 113.079 65.2007 109.986 78.6143C106.893 92.028 115.259 105.409 128.673 108.503C142.086 111.596 155.468 103.23 158.561 89.8159Z" fill="#1E6DFE"/>
<path d="M107.55 105.757C107.263 105.614 106.976 105.47 106.688 105.327V102.791C106.688 103.891 107.023 104.896 107.55 105.757Z" fill="#423343"/>
<path d="M143.91 65.7132C143.91 68.7751 143.623 71.5021 143.048 73.9899C140.704 84.7065 133.863 90.4953 127.93 93.6051C124.247 95.5187 120.611 96.5713 117.788 97.1454V164.124C117.788 170.296 118.697 173.31 121.663 176.467H103.1C105.636 173.453 106.736 170.296 106.736 164.124V105.948C104.966 105.039 102.766 103.748 100.421 102.169C98.986 101.164 97.5029 100.064 96.0198 98.772C91.5705 94.9925 88.0302 90.6389 85.4946 85.9504C85.1597 85.3284 84.8248 84.6586 84.4899 83.9889C81.9065 78.5827 80.6147 72.6982 80.6147 66.4787C80.6147 64.8043 81.9543 63.4647 83.5809 63.4647C85.2076 63.4647 86.5471 64.8043 86.5471 66.4787C86.5471 72.6982 88.0302 78.3913 90.9486 83.5583C93.1015 87.3378 96.0198 90.8302 99.7037 94.0357C100.995 95.1839 102.335 96.1885 103.579 97.0497C104.679 97.8152 105.732 98.485 106.736 99.0591V72.8417C106.736 69.732 109.224 67.2442 112.286 67.2442C115.348 67.2442 117.836 69.7798 117.836 72.8417V90.9259C120.084 90.3997 122.763 89.5385 125.443 88.1033C131.853 84.7065 135.824 79.4917 137.307 72.5068C137.786 70.4018 137.977 68.1053 137.977 65.6654C137.977 63.9909 139.317 62.6514 140.943 62.6514C142.57 62.6992 143.91 64.0388 143.91 65.7132Z" fill="#EDB042"/>
<path opacity="0.2" d="M103.579 97.0022C102.527 99.3464 101.426 100.973 100.422 102.121C98.9863 101.117 97.5032 100.016 96.0201 98.7245C91.5708 94.9449 88.0305 90.5913 85.4949 85.9028C85.16 85.2809 84.8251 84.6111 84.4902 83.9413C86.4518 83.6543 88.8438 83.5107 90.9489 83.5107C93.1018 87.2903 96.0201 90.7827 99.704 93.9881C100.996 95.1363 102.287 96.141 103.579 97.0022Z" fill="black"/>
<path opacity="0.2" d="M143.048 73.9895C140.704 84.706 133.863 90.4949 127.93 93.6046C124.246 95.5183 120.61 96.5708 117.788 97.1449V97.8147C112.908 97.0014 108.889 95.4705 106.688 94.5136V78.6301C109.894 77.2906 113.673 75.9031 117.74 74.7549V91.0212C119.989 90.4949 122.668 89.6338 125.347 88.1985C131.758 84.8017 135.729 79.587 137.212 72.6021C139.556 72.7934 141.47 73.2718 143.048 73.9895Z" fill="black"/>
<path d="M110.371 85.567C122.261 85.567 131.9 75.9282 131.9 64.0381C131.9 52.1481 122.261 42.5093 110.371 42.5093C98.4811 42.5093 88.8423 52.1481 88.8423 64.0381C88.8423 75.9282 98.4811 85.567 110.371 85.567Z" fill="#4B83EB"/>
<path d="M166.9 68.5468C169.269 54.2092 159.566 40.6661 145.228 38.2973C130.891 35.9286 117.348 45.6312 114.979 59.9688C112.61 74.3063 122.313 87.8495 136.65 90.2182C150.988 92.587 164.531 82.8844 166.9 68.5468Z" fill="#4B83EB"/>
<path d="M85.8285 97.6716C98.2206 97.6716 108.266 87.6258 108.266 75.2337C108.266 62.8417 98.2206 52.7959 85.8285 52.7959C73.4364 52.7959 63.3906 62.8417 63.3906 75.2337C63.3906 87.6258 73.4364 97.6716 85.8285 97.6716Z" fill="#4B83EB"/>
<path d="M79.3701 48.6324C79.3701 48.2497 79.3223 47.8191 79.2744 47.4363C79.1787 46.7666 78.9874 46.1446 78.7482 45.5227C78.0784 43.8004 76.978 42.3173 75.5428 41.2647C75.0643 40.9299 74.5859 40.595 74.1075 40.3557C73.0071 39.7816 71.7632 39.4468 70.4715 39.3511C70.0888 39.3032 69.7539 39.3032 69.3712 39.3032C68.9406 39.3032 68.51 39.3511 68.0794 39.4467C63.8215 40.1644 60.5204 43.7047 60.0898 48.0105C60.042 48.2975 60.042 48.5846 60.042 48.8238C60.042 48.8716 60.042 48.8716 60.042 48.9194C59.9941 49.35 59.9941 49.7806 59.9941 50.2112C59.9941 50.5939 60.042 50.9288 60.0898 51.3115C60.2812 52.6033 60.7118 53.7993 61.3337 54.8518C61.6208 55.3303 61.9557 55.8087 62.3384 56.2393C63.5344 57.5788 65.0654 58.6313 66.8355 59.1576C67.4575 59.349 68.1273 59.4925 68.797 59.5403C69.1798 59.5882 69.5625 59.5882 69.9931 59.5882C75.16 59.3968 79.2266 55.1867 79.3223 50.0676C79.3701 49.5892 79.3701 49.1108 79.3701 48.6324Z" fill="#1E6DFE"/>
<path d="M79.3726 46.7671C79.5639 52.1254 75.4017 56.5747 70.0434 56.7661C69.6607 56.7661 69.2301 56.7661 68.8473 56.7183C68.1776 56.6704 67.5078 56.5269 66.8858 56.3355C65.1157 55.8093 63.5847 54.8046 62.3887 53.4172C62.0059 52.9866 61.6711 52.5082 61.384 52.0298C60.7621 50.9772 60.3315 49.7812 60.1401 48.4895C60.0923 48.1067 60.0444 47.7718 60.0444 47.3891C60.0444 46.9585 60.0444 46.5279 60.0923 46.0974C60.5229 41.7916 63.8239 38.2513 68.0819 37.5337C68.5125 37.438 68.943 37.438 69.3736 37.3901C69.7563 37.3901 70.0912 37.3901 70.474 37.438C71.7657 37.5337 72.9617 37.9164 74.11 38.4427C74.6362 38.6819 75.1146 39.0168 75.5452 39.3517C76.9805 40.452 78.0808 41.8873 78.7506 43.6096C78.9898 44.2315 79.1812 44.8535 79.2769 45.5233C79.3247 45.9538 79.3247 46.3366 79.3726 46.7671Z" fill="#F99847"/>
<path d="M79.3223 47.6768C79.5136 53.0351 75.3514 57.4844 69.9931 57.6758C69.6104 57.6758 69.1798 57.6758 68.7971 57.6279C68.1273 57.5801 67.4575 57.4366 66.8355 57.2452C65.0654 56.7189 63.5344 55.7143 62.3384 54.3268C61.9557 53.8963 61.6208 53.4178 61.3337 52.9394C60.7118 51.8869 60.2812 50.6909 60.0898 49.3991C60.042 49.0164 59.9941 48.6815 59.9941 48.2988C59.9941 47.8682 59.9941 47.4376 60.042 47.007C60.4726 42.7013 63.7736 39.161 68.0316 38.4433C68.4622 38.3476 68.8927 38.3476 69.3233 38.2998C69.706 38.2998 70.0409 38.2998 70.4237 38.3476C71.7154 38.4433 72.9115 38.8261 74.0597 39.3523C74.5859 39.5915 75.0643 39.9264 75.4949 40.2613C76.9302 41.3617 78.0305 42.7969 78.7003 44.5193C78.9395 45.1412 79.1309 45.7631 79.2266 46.4329C79.2744 46.8635 79.2744 47.2462 79.3223 47.6768Z" fill="#FCD25B"/>
<path d="M75.4947 40.3084L62.386 54.3739C62.0033 53.9434 61.6684 53.4649 61.3813 52.9865L74.0595 39.3994C74.5379 39.6386 75.0163 39.9257 75.4947 40.3084Z" fill="#FDE09C"/>
<path d="M79.1791 46.4801L68.7975 57.6272C68.1277 57.5794 67.4579 57.4359 66.8359 57.2445L78.7007 44.5664C78.8921 45.1884 79.0835 45.8103 79.1791 46.4801Z" fill="#FDE09C"/>
<path d="M70.4237 38.3476L60.0898 49.3991C60.042 49.0164 59.9941 48.6815 59.9941 48.2988C59.9941 47.8682 59.9941 47.4376 60.042 47.007L68.0316 38.4433C68.4622 38.3476 68.8927 38.3476 69.3233 38.2998C69.6582 38.3476 70.0409 38.3476 70.4237 38.3476Z" fill="#FDE09C"/>
<path d="M69.9453 56.2879C65.4003 56.4314 61.573 52.8433 61.3816 48.2983C61.2381 43.7533 64.8262 39.926 69.3712 39.7346C73.9162 39.5911 77.7435 43.1792 77.9349 47.7242C78.0784 52.2692 74.4903 56.0966 69.9453 56.2879Z" fill="#EDB042"/>
<path d="M69.0361 42.8441L68.9883 42.0786L70.3278 42.0308L70.3757 42.7962C71.5717 42.9876 72.1937 43.8966 72.2415 45.3319V45.6667L70.6627 45.7146V45.284C70.6149 44.5185 70.3278 44.2315 69.8016 44.2793C69.2753 44.2793 68.9883 44.6142 68.9883 45.3319C69.084 47.4847 72.2894 47.4847 72.4329 50.4988C72.4807 51.934 71.9066 52.8909 70.7106 53.1301L70.7584 53.8955L69.4189 53.9434L69.371 53.1779C68.175 52.9866 67.553 52.0776 67.5052 50.6423L67.4573 49.9247L69.0361 49.8768L69.084 50.6901C69.1318 51.4556 69.4667 51.6948 69.993 51.6948C70.5192 51.6948 70.8541 51.4078 70.8063 50.6423C70.7106 48.4894 67.5052 48.4894 67.3616 45.4754C67.3138 44.088 67.8879 43.1311 69.0361 42.8441Z" fill="#FDE09C"/>
<path d="M109.987 23.3746C109.987 22.9918 109.939 22.5613 109.892 22.1785C109.796 21.5087 109.605 20.8868 109.365 20.2649C108.696 18.5425 107.595 17.0594 106.16 16.0069C105.682 15.672 105.203 15.3371 104.725 15.0979C103.624 14.5238 102.38 14.1889 101.089 14.0933C100.706 14.0454 100.371 14.0454 99.9883 14.0454C99.5578 14.0454 99.1272 14.0933 98.6966 14.1889C94.4387 14.9066 91.1376 18.4469 90.707 22.7526C90.6592 23.0397 90.6592 23.3267 90.6592 23.5659C90.6592 23.6138 90.6592 23.6138 90.6592 23.6616C90.6113 24.0922 90.6113 24.5228 90.6113 24.9534C90.6113 25.3361 90.6592 25.671 90.707 26.0537C90.8984 27.3455 91.329 28.5415 91.9509 29.594C92.238 30.0724 92.5729 30.5509 92.9556 30.9814C94.1516 32.321 95.6826 33.3735 97.4527 33.8998C98.0747 34.0912 98.7445 34.2347 99.4142 34.2825C99.797 34.3304 100.18 34.3304 100.61 34.3304C105.777 34.139 109.844 29.9289 109.939 24.8098C109.987 24.3314 110.035 23.853 109.987 23.3746Z" fill="#1E6DFE"/>
<path d="M109.988 21.46C110.18 26.8183 106.017 31.2676 100.659 31.459C100.276 31.459 99.8458 31.459 99.4631 31.4111C98.7933 31.3633 98.1235 31.2198 97.5016 31.0284C95.7314 30.5021 94.2005 29.4975 93.0044 28.11C92.6217 27.6795 92.2868 27.201 91.9997 26.7226C91.3778 25.6701 90.9472 24.4741 90.7558 23.1823C90.708 22.7996 90.6602 22.4647 90.6602 22.082C90.6602 21.6514 90.6602 21.2208 90.708 20.7902C91.1386 16.4845 94.4397 12.9442 98.6976 12.2265C99.1282 12.1308 99.5588 12.1308 99.9893 12.083C100.372 12.083 100.707 12.083 101.09 12.1308C102.381 12.2265 103.577 12.6093 104.726 13.1355C105.252 13.3747 105.73 13.7096 106.161 14.0445C107.596 15.1449 108.697 16.5801 109.366 18.3025C109.606 18.9244 109.797 19.5463 109.893 20.2161C109.94 20.6945 109.988 21.0773 109.988 21.46Z" fill="#F99847"/>
<path d="M109.94 22.4156C110.131 27.7739 105.969 32.2232 100.611 32.4145C100.228 32.4145 99.7975 32.4145 99.4147 32.3667C98.7449 32.3189 98.0752 32.1753 97.4532 31.984C95.6831 31.4577 94.1521 30.453 92.9561 29.0656C92.5733 28.635 92.2384 28.1566 91.9514 27.6782C91.3294 26.6257 90.8989 25.4296 90.7075 24.1379C90.6597 23.7552 90.6118 23.4203 90.6118 23.0375C90.6118 22.607 90.6118 22.1764 90.6597 21.7458C91.0902 17.44 94.3913 13.8997 98.6493 13.1821C99.0798 13.0864 99.5104 13.0864 99.941 13.0386C100.324 13.0386 100.659 13.0386 101.041 13.0864C102.333 13.1821 103.529 13.5648 104.677 14.0911C105.204 14.3303 105.682 14.6652 106.113 15.0001C107.548 16.1005 108.648 17.5357 109.318 19.258C109.557 19.88 109.749 20.5019 109.844 21.1717C109.892 21.6023 109.94 21.985 109.94 22.4156Z" fill="#FCD25B"/>
<path d="M106.113 15.0013L93.0042 29.0668C92.6215 28.6362 92.2866 28.1578 91.9995 27.6794L104.678 14.0923C105.204 14.3793 105.682 14.6664 106.113 15.0013Z" fill="#FDE09C"/>
<path d="M109.845 21.2213L99.463 32.3685C98.7932 32.3206 98.1234 32.1771 97.5015 31.9857L109.366 19.3076C109.558 19.9296 109.749 20.5515 109.845 21.2213Z" fill="#FDE09C"/>
<path d="M101.041 13.0864L90.7075 24.1379C90.6597 23.7552 90.6118 23.4203 90.6118 23.0375C90.6118 22.607 90.6118 22.1764 90.6597 21.7458L98.6493 13.1821C99.0798 13.0864 99.5104 13.0864 99.941 13.0386C100.324 13.0386 100.706 13.0386 101.041 13.0864Z" fill="#FDE09C"/>
<path d="M102.606 30.6946C106.994 29.4138 109.513 24.8181 108.232 20.4299C106.951 16.0417 102.356 13.5226 97.9676 14.8034C93.5793 16.0843 91.0603 20.6799 92.3411 25.0681C93.6219 29.4564 98.2176 31.9754 102.606 30.6946Z" fill="#EDB042"/>
<path d="M99.6559 17.5838L99.6081 16.8183L100.948 16.7705L100.995 17.536C102.192 17.7273 102.813 18.6363 102.861 20.0716V20.4065L101.283 20.4543V20.0238C101.235 19.2583 100.948 18.9712 100.421 19.0191C99.8951 19.0191 99.6081 19.354 99.6081 20.0716C99.7038 22.2245 102.909 22.2245 103.053 25.2385C103.101 26.6738 102.526 27.6306 101.33 27.8698L101.378 28.6353L100.039 28.6831L99.9908 27.9177C98.7948 27.7263 98.1728 26.8173 98.125 25.382L98.0771 24.6644L99.6559 24.6166L99.7037 25.4299C99.7516 26.1954 100.086 26.4346 100.613 26.4346C101.139 26.4346 101.474 26.1475 101.426 25.382C101.33 23.2292 98.125 23.2292 97.9814 20.2151C97.9814 18.7799 98.5077 17.8709 99.6559 17.5838Z" fill="#FDE09C"/>
<path d="M150.607 36.003C150.607 35.6203 150.56 35.1897 150.512 34.807C150.416 34.1372 150.225 33.5152 149.985 32.8933C149.316 31.171 148.215 29.6879 146.78 28.6353C146.302 28.3005 145.823 27.9656 145.345 27.7264C144.244 27.1522 143.001 26.8174 141.709 26.7217C141.326 26.6738 140.991 26.6738 140.608 26.6738C140.178 26.6738 139.747 26.7217 139.317 26.8174C135.059 27.535 131.758 31.0753 131.327 35.3811C131.279 35.6681 131.279 35.9552 131.279 36.1944C131.279 36.2422 131.279 36.2422 131.279 36.2901C131.231 36.7206 131.231 37.1512 131.231 37.5818C131.231 37.9645 131.279 38.2994 131.327 38.6821C131.519 39.9739 131.949 41.1699 132.571 42.2224C132.858 42.7009 133.193 43.1793 133.576 43.6099C134.772 44.9494 136.303 46.002 138.073 46.5282C138.695 46.7196 139.365 46.8631 140.034 46.911C140.417 46.9588 140.8 46.9588 141.23 46.9588C146.397 46.7674 150.464 42.5573 150.56 37.4383C150.607 36.9598 150.655 36.4814 150.607 36.003Z" fill="#1E6DFE"/>
<path d="M150.608 34.1378C150.8 39.496 146.638 43.9453 141.279 44.1367C140.896 44.1367 140.466 44.1367 140.083 44.0889C139.413 44.041 138.744 43.8975 138.122 43.7061C136.352 43.1799 134.821 42.1752 133.625 40.7878C133.242 40.3572 132.907 39.8788 132.62 39.4004C131.998 38.3478 131.567 37.1518 131.376 35.8601C131.328 35.4773 131.28 35.1424 131.28 34.7597C131.28 34.3291 131.28 33.8985 131.328 33.468C131.759 29.1622 135.06 25.6219 139.318 24.9043C139.748 24.8086 140.179 24.8086 140.609 24.7607C140.992 24.7607 141.327 24.7607 141.71 24.8086C143.002 24.9043 144.198 25.287 145.346 25.8133C145.872 26.0525 146.35 26.3874 146.781 26.7223C148.216 27.8226 149.317 29.2579 149.986 30.9802C150.226 31.6021 150.417 32.2241 150.513 32.8939C150.561 33.3244 150.608 33.7072 150.608 34.1378Z" fill="#F99847"/>
<path d="M150.56 35.0474C150.751 40.4057 146.589 44.855 141.23 45.0464C140.848 45.0464 140.417 45.0464 140.034 44.9985C139.365 44.9507 138.695 44.8072 138.073 44.6158C136.303 44.0895 134.772 43.0849 133.576 41.6974C133.193 41.2669 132.858 40.7885 132.571 40.31C131.949 39.2575 131.519 38.0615 131.327 36.7697C131.279 36.387 131.231 36.0521 131.231 35.6694C131.231 35.2388 131.231 34.8082 131.279 34.3776C131.71 30.0719 135.011 26.5316 139.269 25.8139C139.699 25.7183 140.13 25.7183 140.561 25.6704C140.943 25.6704 141.278 25.6704 141.661 25.7183C142.953 25.8139 144.149 26.1967 145.297 26.7229C145.823 26.9621 146.302 27.297 146.732 27.6319C148.167 28.7323 149.268 30.1675 149.938 31.8899C150.177 32.5118 150.368 33.1337 150.464 33.8035C150.512 34.282 150.56 34.6647 150.56 35.0474Z" fill="#FCD25B"/>
<path d="M146.732 27.6785L133.624 41.744C133.241 41.3135 132.906 40.8351 132.619 40.3566L145.297 26.7695C145.776 27.0087 146.302 27.3436 146.732 27.6785Z" fill="#FDE09C"/>
<path d="M150.464 33.8507L140.083 44.9978C139.413 44.95 138.743 44.8065 138.121 44.6151L149.986 31.937C150.177 32.559 150.369 33.2287 150.464 33.8507Z" fill="#FDE09C"/>
<path d="M141.661 25.7666L131.327 36.8181C131.279 36.4353 131.231 36.1004 131.231 35.7177C131.231 35.2871 131.231 34.8566 131.279 34.426L139.269 25.8623C139.699 25.7666 140.13 25.7666 140.561 25.7188C140.943 25.7188 141.326 25.7188 141.661 25.7666Z" fill="#FDE09C"/>
<path d="M143.257 43.3153C147.638 42.0093 150.13 37.3996 148.824 33.0191C147.518 28.6387 142.909 26.1463 138.528 27.4523C134.148 28.7582 131.655 33.368 132.961 37.7484C134.267 42.1289 138.877 44.6212 143.257 43.3153Z" fill="#EDB042"/>
<path d="M140.274 30.2147L140.226 29.4492L141.566 29.4014L141.614 30.1668C142.81 30.3582 143.432 31.2672 143.479 32.7025V33.0374L141.901 33.0852V32.6546C141.853 31.8891 141.566 31.6021 141.04 31.6499C140.513 31.6499 140.226 31.9848 140.226 32.7025C140.322 34.8553 143.527 34.8553 143.671 37.8694C143.719 39.3046 143.145 40.2615 141.949 40.5007L141.996 41.2662L140.657 41.314L140.609 40.5485C139.413 40.3572 138.791 39.4482 138.743 38.0129L138.695 37.2953L140.274 37.2474L140.322 38.0608C140.37 38.8262 140.705 39.0654 141.231 39.0654C141.757 39.0654 142.092 38.7784 142.044 38.0129C141.949 35.86 138.743 35.86 138.6 32.846C138.6 31.4586 139.126 30.5017 140.274 30.2147Z" fill="#FDE09C"/>
<path d="M119.03 56.4317C119.03 56.049 118.982 55.6184 118.935 55.2357C118.839 54.5659 118.648 53.9439 118.408 53.322C117.739 51.5997 116.638 50.1166 115.203 49.0641C114.724 48.7292 114.246 48.3943 113.768 48.1551C112.667 47.581 111.423 47.2461 110.132 47.1504C109.749 47.1025 109.414 47.1025 109.031 47.1025C108.601 47.1025 108.17 47.1504 107.74 47.2461C103.482 47.9637 100.181 51.504 99.75 55.8098C99.7021 56.0968 99.7021 56.3839 99.7021 56.6231C99.7021 56.6709 99.7021 56.6709 99.7021 56.7188C99.6543 57.1493 99.6543 57.5799 99.6543 58.0105C99.6543 58.3932 99.7021 58.7281 99.75 59.1109C99.9413 60.4026 100.372 61.5986 100.994 62.6512C101.281 63.1296 101.616 63.608 101.999 64.0386C103.195 65.3781 104.726 66.4307 106.496 66.9569C107.118 67.1483 107.787 67.2918 108.457 67.3397C108.84 67.3875 109.223 67.3875 109.653 67.3875C114.82 67.1961 118.887 62.986 118.982 57.867C119.03 57.3407 119.03 56.9101 119.03 56.4317Z" fill="#1E6DFE"/>
<path d="M119.032 54.5176C119.223 59.8759 115.061 64.3252 109.703 64.5166C109.32 64.5166 108.889 64.5166 108.507 64.4688C107.837 64.4209 107.167 64.2774 106.545 64.086C104.775 63.5598 103.244 62.5551 102.048 61.1677C101.665 60.7371 101.33 60.2587 101.043 59.7802C100.421 58.7277 99.9907 57.5317 99.7993 56.2399C99.7515 55.8572 99.7036 55.5223 99.7036 55.1396C99.7036 54.709 99.7036 54.2784 99.7515 53.8478C100.182 49.5421 103.483 46.0018 107.741 45.2841C108.172 45.1885 108.602 45.1885 109.033 45.1406C109.416 45.1406 109.75 45.1406 110.133 45.1885C111.425 45.2841 112.621 45.6669 113.769 46.1931C114.295 46.4324 114.774 46.7672 115.204 47.1021C116.64 48.2025 117.74 49.6378 118.41 51.3601C118.649 51.982 118.84 52.604 118.936 53.2737C118.984 53.7522 119.032 54.1349 119.032 54.5176Z" fill="#F99847"/>
<path d="M118.982 55.4273C119.174 60.7856 115.012 65.2349 109.653 65.4263C109.271 65.4263 108.84 65.4263 108.457 65.3784C107.787 65.3306 107.118 65.1871 106.496 64.9957C104.726 64.4694 103.195 63.4647 101.999 62.0773C101.616 61.6468 101.281 61.1683 100.994 60.6899C100.372 59.6374 99.9413 58.4413 99.75 57.1496C99.7021 56.7669 99.6543 56.432 99.6543 56.0492C99.6543 55.6187 99.6543 55.1881 99.7021 54.7575C100.133 50.4517 103.434 46.9114 107.692 46.1938C108.122 46.0981 108.553 46.0981 108.983 46.0503C109.366 46.0503 109.701 46.0503 110.084 46.0981C111.376 46.1938 112.572 46.5766 113.72 47.1028C114.246 47.342 114.724 47.6769 115.155 48.0118C116.59 49.1122 117.691 50.5474 118.36 52.2697C118.6 52.8917 118.791 53.5136 118.887 54.1834C118.935 54.6618 118.982 55.0446 118.982 55.4273Z" fill="#FCD25B"/>
<path d="M115.156 48.0584L102.048 62.1239C101.665 61.6934 101.33 61.2149 101.043 60.7365L113.721 47.1494C114.199 47.4365 114.678 47.7235 115.156 48.0584Z" fill="#FDE09C"/>
<path d="M118.888 54.2784L108.506 65.4256C107.837 65.3777 107.167 65.2342 106.545 65.0428L118.41 52.3647C118.601 52.9388 118.745 53.6086 118.888 54.2784Z" fill="#FDE09C"/>
<path d="M110.084 46.1465L99.75 57.198C99.7021 56.8152 99.6543 56.4803 99.6543 56.0976C99.6543 55.667 99.6543 55.2364 99.7021 54.8059L107.692 46.2422C108.122 46.1465 108.553 46.1465 108.983 46.0986C109.366 46.0986 109.701 46.0986 110.084 46.1465Z" fill="#FDE09C"/>
<path d="M109.606 64.0384C105.061 64.1819 101.234 60.5938 101.043 56.0488C100.899 51.5038 104.487 47.6765 109.032 47.4851C113.577 47.3416 117.405 50.9297 117.596 55.4747C117.74 60.0675 114.151 63.8949 109.606 64.0384Z" fill="#EDB042"/>
<path d="M108.698 50.6424L108.65 49.8769L109.989 49.8291L110.037 50.5946C111.233 50.7859 111.855 51.6949 111.903 53.1302V53.4651L110.324 53.5129V53.0824C110.277 52.3169 109.989 52.0298 109.463 52.0777C108.937 52.0777 108.65 52.4126 108.65 53.1302C108.746 55.2831 111.951 55.2831 112.095 58.2971C112.142 59.7324 111.568 60.6892 110.372 60.9284L110.42 61.6939L109.08 61.7417L109.033 60.9763C107.837 60.7849 107.215 59.8759 107.167 58.4406L107.119 57.723L108.698 57.6752L108.746 58.4885C108.793 59.254 109.128 59.4932 109.655 59.4932C110.181 59.4932 110.516 59.2061 110.468 58.4406C110.372 56.2878 107.167 56.2878 107.023 53.2737C106.975 51.8385 107.55 50.9295 108.698 50.6424Z" fill="#FDE09C"/>
<path d="M156.922 72.5059C156.922 72.1232 156.874 71.6926 156.826 71.3099C156.73 70.6401 156.539 70.0182 156.3 69.3962C155.63 67.6739 154.53 66.1908 153.095 65.1383C152.616 64.8034 152.138 64.4685 151.659 64.2293C150.559 63.6552 149.315 63.3203 148.023 63.2246C147.641 63.1768 147.306 63.1768 146.923 63.1768C146.492 63.1768 146.062 63.2246 145.631 63.3203C141.373 64.0379 138.072 67.5782 137.642 71.884C137.594 72.171 137.594 72.4581 137.594 72.6973C137.594 72.7451 137.594 72.7451 137.594 72.793C137.546 73.2236 137.546 73.6541 137.546 74.0847C137.546 74.4674 137.594 74.8023 137.642 75.1851C137.833 76.4768 138.264 77.6729 138.885 78.7254C139.173 79.2038 139.507 79.6822 139.89 80.1128C141.086 81.4524 142.617 82.5049 144.387 83.0311C145.009 83.2225 145.679 83.366 146.349 83.4139C146.732 83.4617 147.114 83.4617 147.545 83.4617C152.712 83.2704 156.778 79.0603 156.874 73.9412C156.922 73.4628 156.97 72.9844 156.922 72.5059Z" fill="#1E6DFE"/>
<path d="M156.923 70.6407C157.115 75.999 152.952 80.4483 147.594 80.6396C147.211 80.6396 146.781 80.6396 146.398 80.5918C145.728 80.544 145.059 80.4004 144.437 80.2091C142.666 79.6828 141.136 78.6781 139.939 77.2907C139.557 76.8601 139.222 76.3817 138.935 75.9033C138.313 74.8508 137.882 73.6547 137.691 72.363C137.643 71.9803 137.595 71.6454 137.595 71.2626C137.595 70.8321 137.595 70.4015 137.643 69.9709C138.074 65.6651 141.375 62.1248 145.633 61.4072C146.063 61.3115 146.494 61.3115 146.924 61.2637C147.307 61.2637 147.642 61.2637 148.025 61.3115C149.316 61.4072 150.513 61.7899 151.661 62.3162C152.187 62.5554 152.665 62.8903 153.096 63.2252C154.531 64.3256 155.632 65.7608 156.301 67.4831C156.541 68.1051 156.732 68.727 156.828 69.3968C156.875 69.8274 156.923 70.2101 156.923 70.6407Z" fill="#F99847"/>
<path d="M156.874 71.5504C157.065 76.9086 152.903 81.3579 147.545 81.5493C147.162 81.5493 146.732 81.5493 146.349 81.5015C145.679 81.4536 145.009 81.3101 144.387 81.1187C142.617 80.5925 141.086 79.5878 139.89 78.2004C139.507 77.7698 139.173 77.2914 138.885 76.813C138.264 75.7604 137.833 74.5644 137.642 73.2727C137.594 72.8899 137.546 72.555 137.546 72.1723C137.546 71.7417 137.546 71.3111 137.594 70.8806C138.024 66.5748 141.325 63.0345 145.583 62.3169C146.014 62.2212 146.444 62.2212 146.875 62.1733C147.258 62.1733 147.593 62.1733 147.975 62.2212C149.267 62.3169 150.463 62.6996 151.611 63.2259C152.138 63.4651 152.616 63.8 153.047 64.1349C154.482 65.2352 155.582 66.6705 156.252 68.3928C156.491 69.0147 156.683 69.6367 156.778 70.3065C156.826 70.737 156.874 71.1198 156.874 71.5504Z" fill="#FCD25B"/>
<path d="M153.046 64.1815L139.938 78.247C139.555 77.8164 139.22 77.338 138.933 76.8596L151.611 63.2725C152.09 63.5117 152.616 63.7987 153.046 64.1815Z" fill="#FDE09C"/>
<path d="M156.778 70.3536L146.397 81.5008C145.727 81.4529 145.057 81.3094 144.435 81.118L156.3 68.4399C156.491 69.0619 156.635 69.6838 156.778 70.3536Z" fill="#FDE09C"/>
<path d="M147.975 62.2212L137.642 73.2727C137.594 72.8899 137.546 72.555 137.546 72.1723C137.546 71.7417 137.546 71.3111 137.594 70.8806L145.583 62.3169C146.014 62.2212 146.444 62.2212 146.875 62.1733C147.258 62.1733 147.641 62.2212 147.975 62.2212Z" fill="#FDE09C"/>
<path d="M147.496 80.1615C142.951 80.305 139.124 76.7168 138.933 72.1719C138.741 67.6269 142.377 63.7995 146.922 63.6082C151.467 63.4646 155.294 67.0528 155.486 71.5978C155.629 76.1427 152.041 79.9701 147.496 80.1615Z" fill="#EDB042"/>
<path d="M146.588 66.7176L146.54 65.9521L147.88 65.9043L147.927 66.6698C149.124 66.8611 149.745 67.7701 149.793 69.2054V69.5403L148.214 69.5881V69.1575C148.167 68.3921 147.88 68.105 147.353 68.1529C146.827 68.1529 146.54 68.4878 146.54 69.2054C146.636 71.3583 149.841 71.3583 149.985 74.3723C150.032 75.8076 149.458 76.7644 148.262 77.0036L148.31 77.7691L146.971 77.8169L146.923 77.0515C145.727 76.8601 145.105 75.9511 145.057 74.5158L145.009 73.7982L146.588 73.7504L146.636 74.5637C146.684 75.3291 147.018 75.5684 147.545 75.5684C148.071 75.5684 148.406 75.2813 148.358 74.5158C148.262 72.363 145.057 72.363 144.913 69.3489C144.866 67.9615 145.44 67.0047 146.588 66.7176Z" fill="#FDE09C"/>
<path d="M23.3476 172.256L23.0127 174.6L25.3569 174.839L25.5962 172.495L23.3476 172.256Z" fill="#F9AC80"/>
<path d="M32.4366 176.801C32.0539 176.562 31.6233 176.418 31.2406 176.323C29.4704 175.988 27.5567 175.844 26.6477 174.744C26.2172 174.122 25.4995 173.931 25.4995 173.931C24.8776 174.026 24.2556 173.883 23.7772 173.691C23.4423 173.548 23.2031 173.404 23.2031 173.404C22.7725 173.548 22.342 174.17 22.342 174.17C22.342 174.17 21.3373 176.658 21.6243 178.571C21.6243 178.571 21.8635 178.906 22.8682 178.763L23.3466 178.332C23.3466 178.332 26.9826 179.767 31.2884 179.337C34.5416 179.05 33.7762 177.614 32.4366 176.801Z" fill="#012938"/>
<path d="M27.94 156.564C27.8922 159.387 27.7008 162.257 27.4616 165.08C27.2224 167.902 26.8397 170.725 26.4091 173.5L22.199 172.926V172.878H22.0555C20.8116 168.429 22.2947 160.87 22.821 158.478C22.821 157.856 22.7731 157.234 22.7731 156.564C22.5817 151.11 22.0076 145.704 21.1465 140.298L27.1267 139.532C27.7487 145.178 28.0357 150.871 27.94 156.564Z" fill="#4077DB"/>
<path d="M37.6041 139.532C37.2692 142.355 35.4033 144.508 33.2026 144.508H25.4044C24.5911 144.508 23.7778 144.221 23.1558 143.694C22.3904 143.073 21.7684 142.164 21.3857 141.063C21.2421 140.585 21.0986 140.106 21.0508 139.58H37.6041V139.532Z" fill="#4077DB"/>
<path d="M37.6041 109.822V139.532C36.6951 139.771 35.7382 139.963 34.8292 140.106C30.4278 140.824 25.7871 140.537 21.0508 139.532V109.822C21.0508 109.2 21.3857 108.674 21.8641 108.435C22.1033 108.291 22.3425 108.244 22.6296 108.244H36.0253C36.3123 108.244 36.5516 108.339 36.7908 108.435C36.8386 108.483 36.9343 108.531 36.9821 108.579C37.3649 108.866 37.6041 109.296 37.6041 109.822Z" fill="#FFB838"/>
<path d="M33.4379 171.634L33.103 173.978L35.4473 174.265L35.6865 171.921L33.4379 171.634Z" fill="#F9AC80"/>
<path d="M41.3323 178.81C37.0266 179.241 33.3906 177.806 33.3906 177.806L32.9122 178.236C31.9553 178.332 31.6683 178.045 31.6683 178.045C31.3812 176.131 32.3859 173.643 32.3859 173.643C32.3859 173.643 32.8165 172.974 33.2471 172.878C33.2471 172.878 33.4863 173.021 33.8212 173.165C34.2517 173.356 34.9215 173.5 35.5435 173.404C35.5435 173.404 36.2611 173.596 36.6917 174.218C37.6007 175.318 39.5144 175.461 41.2845 175.796C41.6672 175.892 42.0978 176.035 42.4805 176.275C43.868 176.992 44.6334 178.475 41.3323 178.81Z" fill="#012938"/>
<path d="M27.269 108.244H24.6855L26.073 113.267L29.9482 110.875L33.1536 113.267L33.8712 108.244H32.1489H27.269Z" fill="#F2F7FF"/>
<path d="M27.2695 112.55L29.7095 109.918L32.1972 112.55L29.9008 115.564L27.2695 112.55Z" fill="#4077DB"/>
<path d="M29.136 114.704L27.9399 132.118L29.9493 136.328L31.9587 132.214L30.332 114.417L29.136 114.704Z" fill="#4077DB"/>
<path d="M37.9854 156.611C37.9854 159.386 37.8897 162.161 37.6983 164.888C37.507 167.615 37.1242 170.294 36.6937 172.973C36.6937 173.021 36.6937 173.021 36.6937 173.069L32.5314 172.495C32.5314 172.447 32.5314 172.447 32.4836 172.399C31.3354 168.189 32.4357 161.252 32.9142 158.525C32.8663 157.951 32.8663 157.329 32.8185 156.755C32.4836 151.492 31.7659 146.23 30.9526 140.919L36.9329 140.154C37.2199 142.881 37.4591 145.608 37.6505 148.335C37.8419 151.062 37.9854 153.837 37.9854 156.611Z" fill="#4077DB"/>
<path d="M24.8774 96.3783C24.8774 97.8136 23.6813 99.0096 22.2461 99.0096C20.8108 99.0096 19.6147 97.8136 19.6147 96.3783C19.6147 94.943 20.8108 93.747 22.2461 93.747C23.6813 93.6992 24.8774 94.8952 24.8774 96.3783Z" fill="#F19075"/>
<path d="M22.2458 97.91C21.3846 97.91 20.7148 97.2402 20.7148 96.3791C20.7148 95.5179 21.3846 94.8481 22.2458 94.8481C23.1069 94.8481 23.7767 95.5179 23.7767 96.3791C23.7767 97.1924 23.1069 97.91 22.2458 97.91Z" fill="#DA6959"/>
<path d="M37.3169 99.0097C38.7701 99.0097 39.9482 97.8316 39.9482 96.3784C39.9482 94.9251 38.7701 93.7471 37.3169 93.7471C35.8636 93.7471 34.6855 94.9251 34.6855 96.3784C34.6855 97.8316 35.8636 99.0097 37.3169 99.0097Z" fill="#F19075"/>
<path d="M37.3166 97.91C38.1621 97.91 38.8475 97.2246 38.8475 96.3791C38.8475 95.5336 38.1621 94.8481 37.3166 94.8481C36.4711 94.8481 35.7856 95.5336 35.7856 96.3791C35.7856 97.2246 36.4711 97.91 37.3166 97.91Z" fill="#DA6959"/>
<path d="M32.1489 108.864C30.5702 109.821 28.9435 109.821 27.4126 108.864V104.989H32.1489V108.864Z" fill="#F19075"/>
<path d="M37.8425 93.5556V98.2919C37.8425 102.215 34.9242 105.468 31.1447 105.994C31.0968 105.994 31.0012 105.994 30.9055 106.042C30.7619 106.042 30.5706 106.09 30.4271 106.09C30.2835 106.09 30.1878 106.09 30.0443 106.09C25.7386 106.09 22.2461 102.598 22.2461 98.2919V93.5556C22.2461 92.4552 22.4853 91.4505 22.868 90.4937C23.2029 89.6804 23.7292 88.9149 24.3511 88.2451C25.7864 86.7142 27.7958 85.7573 30.0443 85.7573C32.1972 85.7573 34.1587 86.6185 35.5461 88.0537C36.0246 88.5322 36.4551 89.0584 36.79 89.6325C37.4598 90.7807 37.8425 92.1203 37.8425 93.5556Z" fill="#F9AC80"/>
<path d="M30.4271 106.091C30.2835 106.091 30.1878 106.091 30.0443 106.091C25.7386 106.091 22.2461 102.598 22.2461 98.2923V93.556C22.2461 92.4556 22.4853 91.4509 22.868 90.4941C23.2508 90.3027 23.7292 90.207 24.2076 90.2549H24.0641C24.0641 90.2549 23.0594 98.0053 24.2076 101.259C25.308 104.225 28.6091 106.043 30.4271 106.091Z" fill="#F19075"/>
<path d="M27.6525 95.0862C27.6525 95.6603 27.3176 96.0909 26.8871 96.0909C26.4565 96.0909 26.1216 95.6125 26.1216 95.0862C26.1216 94.56 26.4565 94.0815 26.8871 94.0815C27.3176 94.0815 27.6525 94.5121 27.6525 95.0862Z" fill="#381E0A"/>
<path d="M34.6849 96.0909C35.1077 96.0909 35.4504 95.6411 35.4504 95.0862C35.4504 94.5314 35.1077 94.0815 34.6849 94.0815C34.2621 94.0815 33.9194 94.5314 33.9194 95.0862C33.9194 95.6411 34.2621 96.0909 34.6849 96.0909Z" fill="#381E0A"/>
<path d="M34.7801 99.3447C34.7801 99.3447 34.7323 99.5361 34.6844 99.7753C34.6366 99.871 34.5887 100.015 34.5409 100.206C34.3495 100.732 34.0146 101.402 33.3927 101.976C33.297 102.072 33.2013 102.167 33.1056 102.263C32.4837 102.742 31.6704 103.076 30.5222 103.076C29.1826 103.029 28.3215 102.502 27.7474 101.785C27.6517 101.641 27.556 101.498 27.4603 101.402C27.2211 101.019 27.0297 100.589 26.934 100.254C26.8862 100.11 26.8384 99.9667 26.8384 99.8231C26.7905 99.5839 26.7427 99.4404 26.7427 99.3926H34.7801V99.3447Z" fill="#381E0A"/>
<path d="M33.1039 102.264C32.482 102.742 31.6686 103.077 30.5204 103.077C29.1809 103.029 28.3197 102.503 27.7456 101.785C28.1762 101.642 29.0852 101.403 30.5204 101.451C31.7165 101.498 32.5776 101.881 33.1039 102.264Z" fill="#C73044"/>
<path d="M34.7796 99.3457C34.7796 99.3457 34.7318 99.5371 34.6839 99.7763C34.6361 99.9198 34.5882 100.015 34.5404 100.207H26.8857C26.8379 100.063 26.79 99.9198 26.79 99.7763C26.7422 99.5371 26.6943 99.3935 26.6943 99.3457H34.7796Z" fill="white"/>
<path d="M27.5563 91.8813C27.5563 91.8813 26.1689 91.4986 25.3555 92.2641C25.0207 92.5511 24.925 93.0774 25.0685 93.508C25.0685 93.508 26.4081 92.8382 27.4606 92.7425C27.8912 92.6468 27.9868 92.0249 27.5563 91.8813Z" fill="#381E0A"/>
<path d="M33.5378 91.8813C33.5378 91.8813 34.9252 91.4986 35.7386 92.2641C36.0735 92.5511 36.1691 93.0774 36.0256 93.508C36.0256 93.508 34.686 92.8382 33.6335 92.7425C33.2029 92.6468 33.1073 92.0249 33.5378 91.8813Z" fill="#381E0A"/>
<path d="M24.8306 88.7717C24.8306 88.7717 27.0791 90.6853 30.4281 90.2548C33.777 89.8242 36.2169 88.4368 36.2169 88.4368C36.2169 88.4368 25.7874 86.4274 24.8306 88.7717Z" fill="#F19075"/>
<path d="M38.9912 71.7403C39.1826 77.0986 35.0203 81.5479 29.662 81.7392C29.2793 81.7392 28.8487 81.7393 28.466 81.6914C27.7962 81.6436 27.1264 81.5 26.5045 81.3087C24.7343 80.7824 23.2034 79.7777 22.0073 78.3903C21.6246 77.9597 21.2897 77.4813 21.0027 77.0029C20.3807 75.9504 19.9501 74.7543 19.7588 73.4626C19.7109 73.0799 19.6631 72.745 19.6631 72.3622C19.6631 71.9317 19.6631 71.5011 19.7109 71.0705C20.1415 66.7647 23.4426 63.2244 27.7005 62.5068C28.1311 62.4111 28.5617 62.4111 28.9923 62.3633C29.375 62.3633 29.7099 62.3633 30.0926 62.4111C31.3844 62.5068 32.5804 62.8895 33.7286 63.4158C34.2549 63.655 34.7333 63.9899 35.1639 64.3248C36.5991 65.4252 37.6995 66.8604 38.3693 68.5827C38.6085 69.2047 38.7998 69.8266 38.8955 70.4964C38.9434 70.9748 38.9912 71.3576 38.9912 71.7403Z" fill="#F99847"/>
<path d="M38.9429 72.65C39.1342 78.0082 34.972 82.4576 29.6137 82.6489C29.231 82.6489 28.8004 82.6489 28.4177 82.6011C27.7479 82.5532 27.0781 82.4097 26.4561 82.2183C24.686 81.6921 23.155 80.6874 21.959 79.3C21.5763 78.8694 21.2414 78.391 20.9543 77.9126C20.3324 76.86 19.9018 75.664 19.7104 74.3723C19.6626 73.9895 19.6147 73.6546 19.6147 73.2719C19.6147 72.8413 19.6147 72.4108 19.6626 71.9802C20.0932 67.6744 23.3943 64.1341 27.6522 63.4165C28.0828 63.3208 28.5133 63.3208 28.9439 63.2729C29.3267 63.2729 29.6615 63.2729 30.0443 63.3208C31.336 63.4165 32.5321 63.7992 33.6803 64.3255C34.2065 64.5647 34.6849 64.8996 35.1155 65.2345C36.5508 66.3348 37.6511 67.7701 38.3209 69.4924C38.5601 70.1143 38.7515 70.7363 38.8472 71.4061C38.895 71.8845 38.9429 72.2672 38.9429 72.65Z" fill="#FCD25B"/>
<path d="M35.1163 65.2816L22.0076 79.3471C21.6249 78.9165 21.29 78.4381 21.0029 77.9597L33.681 64.3726C34.1595 64.6596 34.6379 64.9467 35.1163 65.2816Z" fill="#FDE09C"/>
<path d="M38.8471 71.5011L28.4654 82.6482C27.7956 82.6004 27.1259 82.4569 26.5039 82.2655L38.3687 69.5874C38.5601 70.1615 38.7036 70.8313 38.8471 71.5011Z" fill="#FDE09C"/>
<path d="M30.0443 63.3691L19.7104 74.4206C19.6626 74.0379 19.6147 73.703 19.6147 73.3202C19.6147 72.8897 19.6147 72.4591 19.6626 72.0285L27.6522 63.4648C28.0828 63.3691 28.5133 63.3691 28.9439 63.3213C29.3267 63.3213 29.6615 63.3213 30.0443 63.3691Z" fill="#FDE09C"/>
<path d="M29.5659 81.2611C25.0209 81.4046 21.1936 77.8165 21.0022 73.2715C20.8587 68.7265 24.4468 64.8991 28.9918 64.7078C33.5368 64.5642 37.3641 68.1524 37.5555 72.6974C37.699 77.2902 34.1109 81.1175 29.5659 81.2611Z" fill="#EDB042"/>
<path d="M28.6567 67.8656L28.6089 67.1001L29.9485 67.0522L29.9963 67.8177C31.1923 68.0091 31.8143 68.9181 31.8621 70.3533V70.6882L30.2833 70.7361V70.3055C30.2355 69.54 29.9485 69.253 29.4222 69.3008C28.8959 69.3008 28.6089 69.6357 28.6089 70.3533C28.7046 72.5062 31.91 72.5062 32.0535 75.5203C32.1013 76.9555 31.5272 77.9124 30.3312 78.1516L30.379 78.917L29.0395 78.9649L28.9916 78.1994C27.7956 78.008 27.1736 77.099 27.1258 75.6638L27.0779 74.9462L28.6567 74.8983L28.7046 75.7116C28.7524 76.4771 29.0873 76.7163 29.6136 76.7163C30.1398 76.7163 30.4747 76.4293 30.4269 75.6638C30.3312 73.5109 27.1258 73.5109 26.9823 70.4969C26.9344 69.0616 27.5085 68.1526 28.6567 67.8656Z" fill="#FDE09C"/>
<path d="M29.7578 97.5278C29.7578 97.9584 30.3319 98.2933 31.0017 98.2933C31.6715 98.2933 32.2456 97.9584 32.2456 97.5278H29.7578Z" fill="#F19075"/>
<path d="M22.1973 80.2079C22.1495 80.2558 22.1495 80.3036 22.1017 80.3515C22.006 80.4471 21.9103 80.5907 21.8146 80.6863C21.6711 80.8777 21.5276 81.0691 21.4319 81.2604L19.0876 78.677L19.7574 77.6723C19.7574 77.6723 19.3268 76.5719 18.7049 74.4669C18.1308 72.3619 19.6617 71.7878 19.566 73.0316C19.4704 74.2755 20.2837 75.8543 21.5276 77.1939C22.7714 78.4856 22.5322 79.586 22.1973 80.2079Z" fill="#F9AC80"/>
<path d="M22.2451 80.209C22.1975 80.2566 22.1499 80.3041 22.1499 80.3517C22.1499 80.3041 22.1975 80.2566 22.2451 80.209Z" fill="#F9AC80"/>
<path d="M23.8736 78.3433L22.916 78.1997C23.2033 78.1997 23.5384 78.2476 23.8736 78.3433Z" fill="#F9AC80"/>
<path d="M22.1501 80.3516C22.0064 80.591 21.8628 80.6867 21.8628 80.6867C21.9585 80.591 22.0543 80.4473 22.1501 80.3516Z" fill="#F9AC80"/>
<path d="M22.2453 93.7003C22.2453 93.7003 19.8053 87.2895 23.1543 86.6198C23.1543 86.6198 23.7284 84.0841 26.1205 83.4622C28.5126 82.8402 34.5885 84.3712 36.1673 82.3618C36.1673 82.3618 39.3248 85.95 37.6025 87.7201C37.6025 87.7201 38.9421 89.7773 37.8896 93.509C37.8896 93.509 34.7799 91.7388 34.732 88.4377C34.732 88.4377 28.2255 89.9208 25.7856 88.4377C25.6899 88.4856 25.0679 93.0306 22.2453 93.7003Z" fill="#381E0A"/>
<path d="M22.6285 108.243L21.5759 113.553C15.5 110.348 13.8734 104.129 13.395 100.923C13.2036 99.7272 13.2036 98.9617 13.2036 98.9617C14.0648 85.9966 17.0788 81.1645 18.227 79.7771C18.2749 79.6814 18.3705 79.6336 18.4184 79.5857L19.0882 78.6289L21.4324 81.2124C21.1932 81.5473 20.954 81.93 20.7626 82.3127C17.1266 88.8671 17.8443 98.1484 17.8443 98.1484C17.8443 98.7703 17.8921 99.3923 17.9878 99.9664C18.8011 105.803 22.6285 108.243 22.6285 108.243Z" fill="#FFB838"/>
<path d="M36.503 80.2079C36.5509 80.2558 36.5509 80.3036 36.5987 80.3515C36.6944 80.4471 36.7901 80.5907 36.8858 80.6863C37.0293 80.8777 37.1728 81.0691 37.2685 81.2604L39.6127 78.677L38.943 77.6723C38.943 77.6723 39.3735 76.5719 39.9955 74.4669C40.5696 72.3619 39.0386 71.7878 39.1343 73.0316C39.23 74.2755 38.4167 75.8543 37.1728 77.1939C35.9289 78.4856 36.1681 79.586 36.503 80.2079Z" fill="#F9AC80"/>
<path d="M45.4976 99.0101C45.4976 99.0101 45.4976 99.7755 45.3062 100.972C44.8757 104.129 43.2012 110.396 37.1731 113.554L36.1206 108.244C36.1206 108.244 39.948 105.851 40.7134 100.015C40.8091 99.4406 40.857 98.8187 40.857 98.1967C40.857 98.1967 41.5746 89.0589 38.0343 82.5046C37.7951 82.074 37.5559 81.6913 37.2688 81.2607L39.6131 78.6772L40.2828 79.6341C40.3307 79.7298 40.4264 79.8255 40.5221 79.9211C41.7181 81.4042 44.6365 86.2363 45.4976 99.0101Z" fill="#FFB838"/>
<path d="M21.4793 81.2607C21.2401 81.5956 21.0009 81.9783 20.8095 82.3611L18.2739 79.8254C18.3218 79.7298 18.4175 79.6819 18.4653 79.6341L19.1351 78.6772L21.4793 81.2607Z" fill="#F2F7FF"/>
<path d="M40.5208 79.9211L37.9852 82.5046C37.746 82.074 37.5068 81.6913 37.2197 81.2607L39.564 78.6772L40.2338 79.6341C40.3294 79.6819 40.4251 79.7776 40.5208 79.9211Z" fill="#F2F7FF"/>
<path d="M181.989 111.402C181.989 111.402 171.942 111.402 172.181 103.077C172.277 100.35 172.516 97.6711 172.516 95.279C172.516 90.3034 171.559 86.2847 166.201 84.371C166.201 84.371 166.297 83.6056 166.775 82.7444C167.493 81.357 169.12 79.6347 172.612 79.7304C178.401 79.8261 181.845 86.5718 180.171 91.4516C178.449 96.2837 178.592 107.861 181.989 111.402Z" fill="#381E0A"/>
<path d="M158.451 135.515L159.312 131.926C159.312 131.926 155.533 130.013 156.011 124.224C156.155 122.549 156.825 120.827 157.782 119.2C159.982 115.373 163.475 112.311 163.475 112.311L162.279 108.58C162.279 108.58 157.447 112.024 154.576 116.856C154.05 117.765 153.571 118.722 153.189 119.679C150.94 125.994 153.954 135.228 158.451 135.515Z" fill="#F9AC80"/>
<path d="M154.576 116.856L157.733 119.2C157.972 118.77 158.212 118.387 158.499 118.004C160.652 114.751 163.474 112.311 163.474 112.311L162.278 108.58C162.278 108.58 158.307 111.402 155.437 115.565C155.15 115.947 154.863 116.426 154.576 116.856Z" fill="#FFB838"/>
<path d="M154.576 116.856L157.733 119.2C157.972 118.769 158.212 118.387 158.499 118.004L155.437 115.564C155.15 115.947 154.863 116.425 154.576 116.856Z" fill="#F2F7FF"/>
<path d="M175.96 172.258L176.248 174.603L173.903 174.842L173.664 172.498L175.96 172.258Z" fill="#F9AC80"/>
<path d="M168.066 179.387C172.372 179.818 176.008 178.382 176.008 178.382L176.487 178.813C177.443 178.909 177.73 178.622 177.73 178.622C178.018 176.708 177.013 174.22 177.013 174.22C177.013 174.22 176.582 173.55 176.152 173.455C176.152 173.455 175.912 173.598 175.578 173.742C175.147 173.933 174.477 174.077 173.855 173.981C173.855 173.981 173.138 174.172 172.707 174.794C171.798 175.895 169.884 176.038 168.114 176.373C167.731 176.469 167.301 176.612 166.918 176.851C165.483 177.617 164.717 179.052 168.066 179.387Z" fill="#012938"/>
<path d="M170.937 177.043C168.21 177.856 167.828 176.373 167.828 176.373C167.875 176.373 167.971 176.325 168.019 176.325C169.789 175.99 171.511 175.895 172.468 174.842C173.234 174.029 173.856 173.55 173.856 173.55C173.951 173.55 174.334 173.79 174.43 173.837C174.765 174.22 173.664 176.229 170.937 177.043Z" fill="#F9AC80"/>
<path d="M177.061 172.878V172.926L172.851 173.5C172.421 170.725 172.038 167.902 171.799 165.08C171.512 162.257 171.368 159.434 171.32 156.564C171.225 150.871 171.512 145.178 172.086 139.532L178.066 140.298C177.205 145.704 176.631 151.11 176.439 156.564C176.439 157.186 176.392 157.808 176.392 158.478L177.061 172.878Z" fill="#4077DB"/>
<path d="M161.657 139.532C161.992 142.355 163.857 144.508 166.058 144.508H173.904C174.718 144.508 175.531 144.221 176.153 143.694C176.918 143.073 177.54 142.164 177.923 141.063C178.067 140.585 178.21 140.106 178.258 139.58H161.657V139.532Z" fill="#4077DB"/>
<path d="M161.658 109.823V139.533C162.567 139.772 163.524 139.964 164.433 140.107C168.834 140.825 173.475 140.538 178.212 139.533V109.823C178.212 109.201 177.877 108.675 177.398 108.436C177.159 108.292 176.92 108.245 176.633 108.245H163.237C162.95 108.245 162.711 108.34 162.472 108.436C162.424 108.484 162.328 108.532 162.28 108.58C161.897 108.867 161.658 109.297 161.658 109.823Z" fill="#FFB838"/>
<path d="M161.658 113.891V131.831C162.567 134.176 164.145 135.707 166.633 134.989C173.379 133.075 176.632 124.56 172.422 118.197C168.499 112.312 161.658 113.891 161.658 113.891Z" fill="#F2F7FF"/>
<path d="M165.483 108.245C165.483 108.245 166.679 110.78 169.55 110.78C172.42 110.78 173.569 108.245 173.569 108.245H165.483Z" fill="#F2F7FF"/>
<path d="M165.818 171.634L166.153 173.978L163.809 174.265L163.57 171.921L165.818 171.634Z" fill="#F9AC80"/>
<path d="M167.588 177.997C167.588 177.997 167.349 178.331 166.344 178.188L165.866 177.757C165.866 177.757 162.23 179.193 157.924 178.762C154.575 178.427 155.34 176.992 156.728 176.179C157.063 175.987 157.398 175.844 157.732 175.748C157.78 175.748 157.876 175.7 157.924 175.7C159.694 175.365 161.608 175.222 162.517 174.121C162.947 173.499 163.665 173.308 163.665 173.308C163.76 173.308 163.856 173.308 163.952 173.356C164.478 173.356 165.004 173.26 165.387 173.069C165.722 172.925 165.961 172.782 165.961 172.782C166.392 172.925 166.822 173.547 166.822 173.547C166.822 173.547 167.875 176.083 167.588 177.997Z" fill="#012938"/>
<path d="M166.297 158.526C166.297 157.952 166.345 157.33 166.393 156.756C166.727 151.493 167.445 146.231 168.258 140.92L162.278 140.155C161.991 142.882 161.752 145.609 161.56 148.336C161.369 151.063 161.273 153.838 161.273 156.612C161.273 159.387 161.369 162.162 161.56 164.889C161.8 167.616 162.135 170.295 162.565 172.974C162.565 173.022 162.565 173.022 162.565 173.07L166.727 172.496L166.297 158.526Z" fill="#4077DB"/>
<path d="M172.851 123.698C173.042 129.056 168.88 133.505 163.522 133.697C163.139 133.697 162.709 133.697 162.326 133.649C161.656 133.601 160.986 133.458 160.364 133.266C158.594 132.74 157.063 131.735 155.867 130.348C155.484 129.917 155.15 129.439 154.863 128.96C154.241 127.908 153.81 126.712 153.619 125.42C153.571 125.037 153.523 124.702 153.523 124.32C153.523 123.889 153.523 123.459 153.571 123.028C154.001 118.722 157.302 115.182 161.56 114.464C161.991 114.369 162.422 114.369 162.852 114.321C163.235 114.321 163.57 114.321 163.952 114.369C165.244 114.464 166.44 114.847 167.588 115.373C168.115 115.613 168.593 115.947 169.024 116.282C170.459 117.383 171.559 118.818 172.229 120.54C172.468 121.162 172.66 121.784 172.755 122.454C172.803 122.932 172.851 123.315 172.851 123.698Z" fill="#F99847"/>
<path d="M172.804 124.607C172.995 129.965 168.833 134.415 163.475 134.606C163.092 134.606 162.661 134.606 162.279 134.558C161.609 134.51 160.939 134.367 160.317 134.175C158.547 133.649 157.016 132.644 155.82 131.257C155.437 130.826 155.102 130.348 154.815 129.87C154.193 128.817 153.763 127.621 153.571 126.329C153.523 125.947 153.476 125.612 153.476 125.229C153.476 124.798 153.476 124.368 153.523 123.937C153.954 119.631 157.255 116.091 161.513 115.374C161.944 115.278 162.374 115.278 162.805 115.23C163.187 115.23 163.522 115.23 163.905 115.278C165.197 115.374 166.393 115.756 167.541 116.283C168.067 116.522 168.546 116.857 168.976 117.192C170.412 118.292 171.512 119.727 172.182 121.449C172.421 122.071 172.612 122.693 172.708 123.363C172.756 123.842 172.756 124.224 172.804 124.607Z" fill="#FCD25B"/>
<path d="M168.976 117.239L155.867 131.304C155.485 130.874 155.15 130.395 154.863 129.917L167.541 116.33C168.019 116.617 168.498 116.904 168.976 117.239Z" fill="#FDE09C"/>
<path d="M172.661 123.459L162.279 134.606C161.609 134.558 160.939 134.414 160.317 134.223L172.182 121.545C172.421 122.119 172.565 122.789 172.661 123.459Z" fill="#FDE09C"/>
<path d="M163.905 115.326L153.571 126.377C153.523 125.994 153.476 125.66 153.476 125.277C153.476 124.846 153.476 124.416 153.523 123.985L161.513 115.421C161.944 115.326 162.374 115.326 162.805 115.278C163.187 115.278 163.522 115.278 163.905 115.326Z" fill="#FDE09C"/>
<path d="M170.599 128.467C172.548 124.332 170.777 119.4 166.642 117.451C162.508 115.502 157.576 117.274 155.627 121.408C153.678 125.543 155.449 130.475 159.584 132.424C163.718 134.373 168.65 132.601 170.599 128.467Z" fill="#EDB042"/>
<path d="M162.519 119.823L162.471 119.057L163.811 119.009L163.859 119.775C165.055 119.966 165.677 120.875 165.724 122.31V122.645L164.146 122.693V122.263C164.098 121.497 163.811 121.21 163.284 121.258C162.758 121.258 162.471 121.593 162.471 122.31C162.567 124.463 165.772 124.463 165.916 127.477C165.964 128.913 165.39 129.869 164.193 130.109L164.241 130.874L162.902 130.922L162.854 130.156C161.658 129.965 161.036 129.056 160.988 127.621L160.94 126.903L162.519 126.855L162.567 127.669C162.615 128.434 162.95 128.673 163.476 128.673C164.002 128.673 164.337 128.386 164.289 127.621C164.193 125.468 160.988 125.468 160.845 122.454C160.797 121.019 161.371 120.11 162.519 119.823Z" fill="#FDE09C"/>
<path d="M172.469 95.2317C172.469 90.2562 171.513 86.2374 166.154 84.3238C166.154 84.3238 166.25 83.5583 166.728 82.6971C167.637 82.5058 171.369 81.5489 175.818 85.759C179.694 89.395 175.005 93.6529 172.469 95.2317Z" fill="#FFB838"/>
<path d="M174.958 96.7623C174.958 97.9105 175.914 98.8673 177.063 98.8673C178.211 98.8673 179.168 97.9105 179.168 96.7623C179.168 95.6141 178.211 94.6572 177.063 94.6572C175.867 94.6572 174.958 95.6141 174.958 96.7623Z" fill="#F19075"/>
<path d="M177.013 97.9585C177.683 97.9585 178.209 97.4322 178.209 96.7625C178.209 96.0927 177.683 95.5664 177.013 95.5664C176.344 95.5664 175.817 96.0927 175.817 96.7625C175.817 97.4322 176.344 97.9585 177.013 97.9585Z" fill="#DA6959"/>
<path d="M161.418 98.8673C162.581 98.8673 163.523 97.9249 163.523 96.7623C163.523 95.5997 162.581 94.6572 161.418 94.6572C160.255 94.6572 159.313 95.5997 159.313 96.7623C159.313 97.9249 160.255 98.8673 161.418 98.8673Z" fill="#F19075"/>
<path d="M161.418 97.9585C162.079 97.9585 162.614 97.423 162.614 96.7625C162.614 96.1019 162.079 95.5664 161.418 95.5664C160.758 95.5664 160.222 96.1019 160.222 96.7625C160.222 97.423 160.758 97.9585 161.418 97.9585Z" fill="#DA6959"/>
<path d="M167.111 108.867C168.69 109.824 170.316 109.824 171.847 108.867V104.992H167.111V108.867Z" fill="#F19075"/>
<path d="M161.418 93.557V98.2934C161.418 102.216 164.336 105.47 168.116 105.996C168.164 105.996 168.259 105.996 168.355 106.044C168.499 106.044 168.69 106.092 168.833 106.092C168.977 106.092 169.073 106.092 169.216 106.092C173.522 106.092 177.014 102.599 177.014 98.2934V93.557C177.014 92.4567 176.775 91.452 176.392 90.4951C176.058 89.6818 175.531 88.9164 174.909 88.2466C173.474 86.7156 171.465 85.7588 169.216 85.7588C167.063 85.7588 165.102 86.6199 163.714 88.0552C163.236 88.5336 162.805 89.0599 162.47 89.634C161.801 90.7822 161.418 92.1218 161.418 93.557Z" fill="#F9AC80"/>
<path d="M168.881 106.092C169.024 106.092 169.12 106.092 169.264 106.092C173.569 106.092 177.062 102.6 177.062 98.2938V93.5574C177.062 92.4571 176.823 91.4524 176.44 90.4955C176.057 90.3042 175.579 90.2085 175.1 90.2563H175.244C175.244 90.2563 176.249 98.0067 175.1 101.26C173.952 104.226 170.651 106.044 168.881 106.092Z" fill="#F19075"/>
<path d="M171.608 95.0887C171.608 95.6628 171.943 96.0933 172.374 96.0933C172.804 96.0933 173.139 95.6149 173.139 95.0887C173.139 94.5624 172.804 94.084 172.374 94.084C171.943 94.084 171.608 94.5146 171.608 95.0887Z" fill="#381E0A"/>
<path d="M164.575 96.0933C164.998 96.0933 165.341 95.6435 165.341 95.0887C165.341 94.5338 164.998 94.084 164.575 94.084C164.152 94.084 163.81 94.5338 163.81 95.0887C163.81 95.6435 164.152 96.0933 164.575 96.0933Z" fill="#381E0A"/>
<path d="M164.48 99.3462C164.48 99.3462 164.528 99.5376 164.576 99.7768C164.624 99.8725 164.671 100.016 164.719 100.207C164.911 100.734 165.245 101.403 165.867 101.977C165.963 102.073 166.059 102.169 166.154 102.265C166.776 102.743 167.59 103.078 168.738 103.078C170.077 103.03 170.939 102.504 171.513 101.786C171.608 101.643 171.704 101.499 171.8 101.403C172.039 101.021 172.23 100.59 172.326 100.255C172.374 100.112 172.422 99.9681 172.422 99.8246C172.47 99.5854 172.517 99.4419 172.517 99.394H164.48V99.3462Z" fill="#381E0A"/>
<path d="M166.154 102.265C166.776 102.744 167.589 103.079 168.737 103.079C170.077 103.031 170.938 102.505 171.512 101.787C171.082 101.643 170.173 101.404 168.737 101.452C167.541 101.5 166.68 101.883 166.154 102.265Z" fill="#C73044"/>
<path d="M164.48 99.3462C164.48 99.3462 164.528 99.5376 164.576 99.7768C164.624 99.9203 164.671 100.016 164.719 100.207H172.374C172.422 100.064 172.47 99.9203 172.47 99.7768C172.517 99.5376 172.565 99.394 172.565 99.3462H164.48Z" fill="white"/>
<path d="M171.703 92.1223C171.703 92.1223 173.091 91.9788 173.904 92.2658C174.239 92.4094 174.335 92.6007 174.191 92.7921C174.191 92.7921 172.852 92.505 171.799 92.4572C171.368 92.4572 171.273 92.1702 171.703 92.1223Z" fill="#381E0A"/>
<path d="M165.627 92.1223C165.627 92.1223 164.24 91.9788 163.426 92.2658C163.091 92.4094 162.996 92.6007 163.139 92.7921C163.139 92.7921 164.479 92.505 165.531 92.4572C165.962 92.4572 166.058 92.1702 165.627 92.1223Z" fill="#381E0A"/>
<path d="M172.422 94.0835C172.422 94.0835 173.809 94.2748 174.336 93.8921C174.336 93.8921 173.809 94.6097 172.757 94.6576L172.422 94.0835Z" fill="#381E0A"/>
<path d="M164.479 94.0835C164.479 94.0835 163.092 94.2748 162.565 93.8921C162.565 93.8921 163.092 94.6097 164.144 94.6576L164.479 94.0835Z" fill="#381E0A"/>
<path d="M177.014 93.5566C173.282 95.5181 169.216 91.8821 167.254 89.7771C168.498 92.3127 170.747 93.5087 170.89 93.6044C167.733 92.2649 166.584 90.5425 166.202 89.1551C165.054 89.6335 163.331 90.8296 161.37 93.9393C161.37 93.9393 160.221 91.7864 161.37 89.0594C162.518 86.3325 164.766 83.2706 169.933 84.4188C170.938 84.4666 172.134 84.8972 173.522 85.7584C178.736 89.0116 177.014 93.5566 177.014 93.5566Z" fill="#381E0A"/>
<path d="M169.502 97.5278C169.502 97.9584 168.928 98.2933 168.259 98.2933C167.589 98.2933 167.015 97.9584 167.015 97.5278H169.502Z" fill="#F19075"/>
<path d="M157.926 135.849C157.352 135.944 155.917 135.992 156.443 136.471C156.826 136.806 157.83 136.997 159.122 136.997C160.366 136.997 161.897 136.806 163.189 136.519C163.189 136.519 163.189 136.519 163.236 136.519L163.763 136.375L164.289 136.232L164.767 136.088L165.246 135.944L165.724 135.801L166.203 135.61C166.203 134.318 166.251 132.787 166.203 131.495C165.389 131.543 164.48 131.782 163.715 131.782C163.476 131.447 163.141 131.017 162.758 130.586C162.375 130.156 161.993 129.773 161.514 129.534C161.179 129.342 160.94 129.294 160.844 129.39C160.749 129.486 160.701 129.677 160.749 129.964C160.797 130.251 160.94 130.538 161.131 130.825C161.323 131.112 161.562 131.352 161.801 131.495C161.801 131.495 161.706 131.495 161.61 131.543C161.466 131.543 161.275 131.591 161.036 131.591C160.797 131.591 160.509 131.591 160.175 131.591C159.84 131.543 159.505 131.543 159.17 131.447C158.883 131.399 158.548 131.352 158.261 131.352C157.878 131.399 157.495 131.447 157.208 131.543C156.204 131.878 156.156 132.213 156.491 132.548C156.826 132.835 157.591 133.074 158.261 133.17C158.261 133.17 157.83 133.122 157.352 133.122C156.874 133.122 156.299 133.122 155.965 133.313C155.343 133.648 156.395 134.366 157.926 134.653C157.926 134.653 157.4 134.605 156.826 134.653C156.252 134.701 155.677 134.748 155.582 134.988C155.486 135.179 155.821 135.418 156.299 135.61C156.539 135.705 156.826 135.801 157.113 135.849C157.352 135.801 157.687 135.849 157.926 135.849Z" fill="#F9AC80"/>
<path d="M164.575 131.686L165.006 135.896C166.537 135.752 167.972 135.465 169.264 135.035C169.933 134.843 170.603 134.556 171.369 134.222C171.512 134.174 171.608 134.078 171.751 134.03C171.799 134.03 171.847 133.982 171.895 133.982H171.943C171.991 133.982 171.991 133.934 172.039 133.934C172.134 133.887 172.278 133.791 172.469 133.695L172.948 133.408C172.995 133.36 173.091 133.313 173.139 133.265L173.378 133.121C174.67 132.26 175.818 131.303 176.775 130.203C177.78 129.055 178.641 127.811 179.31 126.519C179.693 125.754 180.028 124.94 180.315 124.127C180.985 122.07 181.224 119.869 181.081 117.716C180.889 114.702 179.885 111.784 178.162 109.248L174.67 111.64C175.962 113.506 176.727 115.707 176.871 118.003C177.014 119.773 176.727 121.639 176.105 123.314C175.962 123.744 175.77 124.127 175.579 124.557C175.053 125.562 174.431 126.519 173.665 127.38C172.9 128.193 172.039 128.959 171.082 129.581L170.89 129.724C170.89 129.724 170.842 129.724 170.842 129.772C170.795 129.772 170.795 129.82 170.747 129.82L170.316 130.059H170.268C170.268 130.059 170.173 130.107 170.125 130.107C170.077 130.155 170.029 130.155 169.933 130.203C169.886 130.251 169.838 130.251 169.79 130.298C169.742 130.346 169.646 130.394 169.599 130.394C169.024 130.633 168.498 130.873 168.02 131.016C166.967 131.303 165.819 131.542 164.575 131.686Z" fill="#F9AC80"/>
<path d="M176.44 122.309C176.344 122.644 176.249 122.979 176.105 123.314C176.105 123.314 176.536 124.08 180.315 124.08C180.459 123.649 180.554 123.218 180.65 122.836C181.033 121.161 181.176 119.439 181.033 117.669C180.842 114.655 179.837 111.736 178.115 109.201L174.622 111.593C175.914 113.459 176.679 115.659 176.823 117.956C176.966 119.391 176.823 120.874 176.44 122.309Z" fill="#FFB838"/>
<path d="M176.104 123.266C176.104 123.266 176.535 124.031 180.315 124.031C180.458 123.601 180.554 123.17 180.649 122.788C179.645 122.74 177.779 122.596 176.392 122.309C176.344 122.644 176.248 122.979 176.104 123.266Z" fill="#F2F7FF"/>
<path d="M160.843 176.467C158.116 177.28 157.733 175.797 157.733 175.797C157.781 175.797 157.877 175.749 157.925 175.749C159.695 175.414 161.704 175.031 162.661 173.979C163.522 173.213 163.666 172.974 163.666 172.974C163.761 172.974 164.383 173.118 164.479 173.118C164.814 173.5 163.57 175.653 160.843 176.467Z" fill="#F9AC80"/>
<path d="M74.7773 84.7061L74.4902 87.3852H95.5407L95.8277 84.7061H74.7773Z" fill="#B28534"/>
<path d="M73.4365 97.2402L73.1973 99.8715H94.2477L94.5348 97.2402H73.4365Z" fill="#B28534"/>
<path d="M72.1459 109.728L71.8589 112.359H92.9572L93.2442 109.728H72.1459Z" fill="#B28534"/>
<path d="M70.8539 122.214L70.5669 124.845H91.6652L91.9044 122.214H70.8539Z" fill="#B28534"/>
<path d="M69.5151 134.7L69.2759 137.331H90.3263L90.6134 134.7H69.5151Z" fill="#B28534"/>
<path d="M68.2231 147.188L67.936 149.819H89.0343L89.3214 147.188H68.2231Z" fill="#B28534"/>
<path d="M66.9301 159.674L66.6431 162.306H87.7413L87.9806 159.674H66.9301Z" fill="#B28534"/>
<path d="M74.395 78.6782L64.4917 173.405H66.4532L76.4043 78.6782H74.395Z" fill="#FFB838"/>
<path d="M95.7788 78.6782L85.8276 173.405H87.837L97.7403 78.6782H95.7788Z" fill="#FFB838"/>
<path d="M87.5044 116.712L86.6432 113.124C86.6432 113.124 90.4227 111.211 89.9443 105.422C89.8008 103.747 89.131 102.025 88.1741 100.398C85.9734 96.5709 82.481 93.509 82.481 93.509L83.677 89.7773C83.677 89.7773 88.509 93.222 91.3796 98.054C91.9058 98.963 92.3842 99.9198 92.767 100.877C95.0634 107.192 92.0493 116.425 87.5044 116.712Z" fill="#F9AC80"/>
<path d="M91.3796 98.054L88.222 100.398C87.9828 99.9677 87.7436 99.5849 87.4565 99.2022C85.3036 95.9489 82.481 93.509 82.481 93.509L83.677 89.7773C83.677 89.7773 87.6479 92.6 90.5184 96.7623C90.8533 97.145 91.1403 97.6234 91.3796 98.054Z" fill="#FFB838"/>
<path d="M91.3806 98.0539L88.223 100.398C87.9838 99.9676 87.7446 99.5849 87.4575 99.2021L90.5194 96.7622C90.8543 97.1449 91.1413 97.6234 91.3806 98.0539Z" fill="#B28534"/>
<path d="M70.0434 153.455L69.7563 155.799L72.1006 156.039L72.3398 153.694L70.0434 153.455Z" fill="#F9AC80"/>
<path d="M79.1334 157.999C78.7506 157.76 78.3201 157.616 77.9373 157.52C76.1672 157.186 74.2535 157.042 73.3445 155.942C72.9139 155.32 72.1963 155.128 72.1963 155.128C71.5744 155.224 70.9524 155.08 70.474 154.889C70.1391 154.746 69.8999 154.602 69.8999 154.602C69.4693 154.746 69.0387 155.368 69.0387 155.368C69.0387 155.368 68.0341 157.855 68.3211 159.769C68.3211 159.769 68.5603 160.104 69.565 159.96L70.0434 159.53C70.0434 159.53 73.6794 160.965 77.9852 160.534C81.2863 160.247 80.4729 158.812 79.1334 157.999Z" fill="#012938"/>
<path d="M74.6363 137.763C74.5885 140.586 74.3971 143.456 74.1579 146.279C73.9187 149.102 73.536 151.924 73.1054 154.699L68.8953 154.125V154.077H68.7518C67.5079 149.628 68.991 142.069 69.5172 139.677C69.5172 139.055 69.4694 138.433 69.4694 137.763C69.278 132.309 68.7039 126.903 67.8428 121.497L73.823 120.731C74.4928 126.377 74.7798 132.07 74.6363 137.763Z" fill="#4077DB"/>
<path d="M84.2984 120.731C83.9635 123.554 82.0977 125.707 79.897 125.707H72.0509C71.2376 125.707 70.4243 125.42 69.8023 124.894C69.0368 124.272 68.4149 123.363 68.0322 122.262C67.8886 121.784 67.7451 121.306 67.6973 120.779H84.2984V120.731Z" fill="#4077DB"/>
<path d="M84.2989 91.0226V120.732C83.3899 120.972 82.4331 121.163 81.5241 121.307C77.1226 122.024 72.482 121.737 67.7456 120.732V91.0226C67.7456 90.4007 68.0805 89.8744 68.5589 89.6352C68.7981 89.4917 69.0373 89.4438 69.3244 89.4438H82.7201C83.0072 89.4438 83.2464 89.5395 83.4856 89.6352C83.5334 89.6831 83.6291 89.7309 83.677 89.7787C84.0597 90.0658 84.2989 90.5442 84.2989 91.0226Z" fill="#FFB838"/>
<path d="M84.2984 95.089V113.03C83.3894 115.374 81.8107 116.905 79.3229 116.187C72.5772 114.274 69.3239 105.758 73.534 99.3948C77.457 93.5102 84.2984 95.089 84.2984 95.089Z" fill="#B28534"/>
<path d="M80.5213 89.4438C80.5213 89.4438 79.3253 91.9795 76.4548 91.9795C73.5842 91.9795 72.436 89.4438 72.436 89.4438H80.5213Z" fill="#B28534"/>
<path d="M80.1362 152.833L79.8491 155.178L82.1934 155.465L82.4326 153.121L80.1362 152.833Z" fill="#F9AC80"/>
<path d="M88.0316 160.011C83.7258 160.441 80.0898 159.006 80.0898 159.006L79.6114 159.436C78.6545 159.532 78.3675 159.245 78.3675 159.245C78.0804 157.331 79.0851 154.844 79.0851 154.844C79.0851 154.844 79.5157 154.174 79.9463 154.078C79.9463 154.078 80.1855 154.222 80.5204 154.365C80.951 154.557 81.6207 154.7 82.2427 154.604C82.2427 154.604 82.9603 154.796 83.3909 155.418C84.2999 156.518 86.2136 156.662 87.9837 156.996C88.3665 157.092 88.797 157.236 89.1798 157.475C90.5672 158.193 91.3805 159.676 88.0316 160.011Z" fill="#012938"/>
<path d="M84.6836 137.81C84.6836 140.585 84.588 143.36 84.3966 146.087C84.2052 148.814 83.8225 151.493 83.3919 154.172C83.3919 154.22 83.3919 154.22 83.3919 154.268L79.2297 153.694C79.2297 153.646 79.2297 153.646 79.1818 153.598C78.0336 149.388 79.134 142.451 79.6124 139.724C79.6124 139.15 79.5646 138.528 79.5167 137.954C79.1818 132.691 78.4642 127.428 77.6509 122.118L83.6311 121.353C83.9182 124.08 84.1574 126.807 84.3487 129.534C84.588 132.26 84.6836 135.035 84.6836 137.81Z" fill="#4077DB"/>
<path d="M71.5736 77.579C71.5736 79.0142 70.3776 80.2103 68.9423 80.2103C67.5071 80.2103 66.311 79.0142 66.311 77.579C66.311 76.1437 67.5071 74.9477 68.9423 74.9477C70.4254 74.8998 71.5736 76.0959 71.5736 77.579Z" fill="#F19075"/>
<path d="M68.9421 79.1092C68.0809 79.1092 67.4111 78.4395 67.4111 77.5783C67.4111 76.7171 68.0809 76.0474 68.9421 76.0474C69.8032 76.0474 70.473 76.7171 70.473 77.5783C70.473 78.3916 69.8032 79.1092 68.9421 79.1092Z" fill="#DA6959"/>
<path d="M86.6933 77.5786C86.6933 79.0138 85.4972 80.2099 84.062 80.2099C82.6267 80.2099 81.4307 79.0138 81.4307 77.5786C81.4307 76.1433 82.6267 74.9473 84.062 74.9473C85.4972 74.9473 86.6933 76.0955 86.6933 77.5786Z" fill="#F19075"/>
<path d="M84.0129 79.1092C83.1517 79.1092 82.4819 78.4395 82.4819 77.5783C82.4819 76.7171 83.1517 76.0474 84.0129 76.0474C84.874 76.0474 85.5438 76.7171 85.5438 77.5783C85.5438 78.3916 84.874 79.1092 84.0129 79.1092Z" fill="#DA6959"/>
<path d="M78.8462 90.0651C77.2674 91.022 75.6408 91.022 74.1099 90.0651V86.1899H78.8462V90.0651Z" fill="#F19075"/>
<path d="M84.5877 74.7562V79.4926C84.5877 83.4156 81.6693 86.6689 77.8898 87.1951C77.842 87.1951 77.7463 87.1951 77.6506 87.243C77.5071 87.243 77.3157 87.2908 77.1722 87.2908C77.0287 87.2908 76.933 87.2908 76.7894 87.2908C72.4837 87.2908 68.9912 83.7984 68.9912 79.4926V74.7562C68.9912 73.7037 69.2304 72.6512 69.6132 71.6944C69.9481 70.881 70.4743 70.1156 71.0963 69.4458C72.5315 67.9148 74.5409 66.958 76.7894 66.958C78.9423 66.958 80.9038 67.8192 82.2913 69.2544C82.7697 69.7328 83.2003 70.2591 83.5352 70.8332C84.1571 71.9814 84.5877 73.321 84.5877 74.7562Z" fill="#F9AC80"/>
<path d="M70.5693 73.9427C70.5693 73.9427 72.5308 72.938 72.8657 71.1201C73.2006 69.3021 75.7363 69.3978 78.3197 69.9719C80.9032 70.5938 82.0992 70.4981 82.5298 69.3978C82.9604 68.3452 75.4492 67.2449 74.588 67.5798C73.679 67.9147 73.1528 67.9625 72.4352 68.5844C71.7175 69.1585 70.5215 70.7373 70.5215 70.7373L70.5693 73.9427Z" fill="#F19075"/>
<path d="M77.1233 87.2898C76.9798 87.2898 76.8841 87.2898 76.7406 87.2898C72.4348 87.2898 68.9424 83.7973 68.9424 79.4915V74.7552C68.9424 73.7027 69.1816 72.6501 69.5643 71.6933C69.9471 71.5019 70.4255 71.4062 70.9039 71.4541H70.7604C70.7604 71.4541 69.7557 79.2045 70.9039 82.4577C72.0043 85.4239 75.3532 87.2419 77.1233 87.2898Z" fill="#F19075"/>
<path d="M74.3488 76.2869C74.3488 76.861 74.0139 77.2916 73.5833 77.2916C73.1528 77.2916 72.8179 76.8132 72.8179 76.2869C72.8179 75.7128 73.1528 75.2822 73.5833 75.2822C74.0139 75.2822 74.3488 75.7128 74.3488 76.2869Z" fill="#381E0A"/>
<path d="M82.195 76.2869C82.195 76.861 81.8601 77.2916 81.4295 77.2916C80.999 77.2916 80.6641 76.8132 80.6641 76.2869C80.6641 75.7128 80.999 75.2822 81.4295 75.2822C81.8601 75.2822 82.195 75.7128 82.195 76.2869Z" fill="#381E0A"/>
<path d="M81.5267 80.5454C81.5267 80.5454 81.4789 80.7368 81.431 80.976C81.3832 81.0717 81.3353 81.2152 81.2875 81.4066C81.0961 81.9328 80.7612 82.6026 80.1393 83.1767C80.0436 83.2724 79.9479 83.3681 79.8522 83.4638C79.2303 83.9422 78.417 84.2771 77.2688 84.2771C75.9292 84.2292 75.068 83.703 74.4939 82.9853C74.3982 82.8418 74.3026 82.6983 74.2069 82.6026C73.9677 82.2199 73.7763 81.7893 73.6806 81.4544C73.6328 81.3109 73.5849 81.1674 73.5849 81.0238C73.5371 80.7846 73.4893 80.6411 73.4893 80.5933H81.5267V80.5454Z" fill="#381E0A"/>
<path d="M79.8524 83.4641C79.2305 83.9425 78.4172 84.2774 77.269 84.2774C75.9294 84.2295 75.0682 83.7033 74.4941 82.9856C74.9247 82.8421 75.8337 82.6029 77.269 82.6508C78.4172 82.6986 79.2783 83.0813 79.8524 83.4641Z" fill="#C73044"/>
<path d="M81.5257 80.5454C81.5257 80.5454 81.4779 80.7368 81.43 80.976C81.3822 81.1195 81.3343 81.2152 81.2865 81.4066H73.6318C73.584 81.263 73.5361 81.1195 73.5361 80.976C73.4883 80.7368 73.4404 80.5933 73.4404 80.5454H81.5257Z" fill="white"/>
<path d="M74.2526 73.082C74.2526 73.082 72.8651 72.6993 72.0518 73.4647C71.7169 73.7518 71.6213 74.2781 71.7648 74.7086C71.7648 74.7086 73.1044 74.0389 74.1569 73.9432C74.6353 73.8475 74.6831 73.2255 74.2526 73.082Z" fill="#381E0A"/>
<path d="M80.2341 73.082C80.2341 73.082 81.6215 72.6993 82.4349 73.4647C82.7697 73.7518 82.8654 74.2781 82.7219 74.7086C82.7219 74.7086 81.3823 74.0389 80.3298 73.9432C79.8992 73.8475 79.8035 73.2255 80.2341 73.082Z" fill="#381E0A"/>
<path d="M85.1133 73.9425C85.0176 74.5166 84.8262 75.0907 84.5392 75.7605C84.5392 75.7605 84.4913 74.9472 84.3 74.086C84.2043 73.4641 84.0129 72.8421 83.7737 72.5072C83.5345 72.1723 83.1039 71.8853 82.769 71.4547C82.4341 71.072 82.1949 70.5457 82.1949 69.7802C81.5251 69.9238 80.7118 69.8759 79.8985 69.6367C77.937 69.1105 75.0186 68.2971 73.105 69.254C73.105 69.254 72.1481 70.1151 72.0046 71.2155C71.8611 72.1723 70.8085 73.3205 70.5215 73.6554C70.5215 73.7033 70.4737 73.799 70.4737 73.8468C70.2823 74.8993 70.2823 75.904 70.2823 76.6216C70.2823 76.6216 69.0384 75.9518 68.847 74.6123C68.847 74.6123 68.3686 74.086 68.2251 72.7943C68.1294 72.1723 68.1772 71.3112 68.3686 70.3065C68.4165 70.1151 68.4643 69.9238 68.5121 69.7802C68.5121 69.7324 68.56 69.6846 68.56 69.6367C68.6078 69.4453 68.6557 69.3018 68.7513 69.1105C69.0862 68.2015 69.6125 67.3403 70.3301 66.527C71.6219 65.0917 73.5355 63.9914 76.0233 63.9435C79.3722 63.8957 82.3863 64.6612 83.7737 65.8572C84.2521 66.2878 84.5392 66.7662 84.5392 67.2925C84.5392 67.4838 84.5392 67.723 84.4913 67.9144C84.3957 68.345 84.1564 68.6799 83.8215 68.9669C83.8215 68.9669 84.4913 69.541 84.9219 70.6414C85.209 71.5982 85.4003 72.6508 85.1133 73.9425Z" fill="#381E0A"/>
<path d="M92.5288 104.896C92.7202 110.254 88.5579 114.704 83.1996 114.895C82.8169 114.895 82.3863 114.895 82.0036 114.847C81.3338 114.799 80.664 114.656 80.0421 114.464C78.2719 113.938 76.741 112.933 75.5449 111.546C75.1622 111.116 74.8273 110.637 74.5403 110.159C73.9183 109.106 73.4877 107.91 73.2964 106.618C73.2485 106.236 73.2007 105.901 73.2007 105.518C73.2007 105.087 73.2007 104.657 73.2485 104.226C73.6791 99.9205 76.9802 96.3802 81.2381 95.6626C81.6687 95.5669 82.0993 95.5669 82.5299 95.519C82.9126 95.519 83.2475 95.519 83.6302 95.5669C84.922 95.6626 86.118 96.0453 87.2662 96.5716C87.7925 96.8108 88.2709 97.1457 88.7015 97.4806C90.1367 98.5809 91.2371 100.016 91.9069 101.738C92.1461 102.36 92.3374 102.982 92.4331 103.652C92.481 104.131 92.481 104.513 92.5288 104.896Z" fill="#F99847"/>
<path d="M92.481 105.806C92.6723 111.164 88.5101 115.613 83.1518 115.805C82.7691 115.805 82.3385 115.805 81.9557 115.757C81.286 115.709 80.6162 115.565 79.9942 115.374C78.2241 114.848 76.6931 113.843 75.4971 112.456C75.1144 112.025 74.7795 111.547 74.4924 111.068C73.8705 110.016 73.4399 108.82 73.2485 107.528C73.2007 107.145 73.1528 106.81 73.1528 106.428C73.1528 105.997 73.1528 105.567 73.2007 105.136C73.6313 100.83 76.9323 97.2899 81.1903 96.5722C81.6208 96.4765 82.0514 96.4766 82.482 96.4287C82.8647 96.4287 83.1996 96.4287 83.5824 96.4765C84.8741 96.5722 86.0701 96.955 87.2184 97.4812C87.7446 97.7204 88.223 98.0553 88.6536 98.3902C90.0889 99.4906 91.1892 100.926 91.859 102.648C92.0982 103.27 92.2896 103.892 92.3853 104.562C92.4331 105.04 92.4331 105.423 92.481 105.806Z" fill="#FCD25B"/>
<path d="M88.6539 98.4373L75.5452 112.503C75.1625 112.072 74.8276 111.594 74.5405 111.115L87.2186 97.5283C87.697 97.8154 88.1755 98.1024 88.6539 98.4373Z" fill="#FDE09C"/>
<path d="M92.3374 104.657L81.9557 115.804C81.2859 115.756 80.6161 115.613 79.9941 115.421L91.8589 102.743C92.0503 103.317 92.2417 103.987 92.3374 104.657Z" fill="#FDE09C"/>
<path d="M83.5824 96.5234L73.2485 107.575C73.2007 107.192 73.1528 106.857 73.1528 106.475C73.1528 106.044 73.1528 105.613 73.2007 105.183L81.1903 96.6191C81.6208 96.5234 82.0514 96.5234 82.482 96.4756C82.8169 96.4756 83.1996 96.4756 83.5824 96.5234Z" fill="#FDE09C"/>
<path d="M85.138 114.083C89.5253 112.8 92.0414 108.203 90.7578 103.815C89.4743 99.428 84.8771 96.9119 80.4898 98.1954C76.1025 99.479 73.5864 104.076 74.87 108.463C76.1535 112.851 80.7507 115.367 85.138 114.083Z" fill="#EDB042"/>
<path d="M82.1958 101.021L82.1479 100.255L83.4875 100.208L83.5354 100.973C84.7314 101.164 85.3533 102.073 85.4012 103.509V103.844L83.8224 103.891V103.461C83.7746 102.695 83.4875 102.408 82.9612 102.456C82.435 102.456 82.1479 102.791 82.1479 103.509C82.2436 105.661 85.449 105.661 85.5926 108.676C85.6404 110.111 85.0663 111.068 83.8703 111.307L83.9181 112.072L82.5785 112.12L82.5307 111.355C81.3346 111.163 80.7127 110.254 80.6648 108.819L80.617 108.101L82.1958 108.054L82.2436 108.867C82.2915 109.632 82.6264 109.872 83.1526 109.872C83.6789 109.872 84.0138 109.585 83.9659 108.819C83.8702 106.666 80.6648 106.666 80.5213 103.652C80.4735 102.217 81.0476 101.308 82.1958 101.021Z" fill="#FDE09C"/>
<path d="M76.4531 78.7266C76.4531 79.1571 77.0272 79.492 77.697 79.492C78.3668 79.492 78.9409 79.1571 78.9409 78.7266H76.4531Z" fill="#F19075"/>
<path d="M88.0328 117.048C88.6069 117.143 90.0421 117.191 89.5159 117.669C89.1331 118.004 88.1285 118.196 86.8367 118.196C85.5928 118.196 84.0619 118.004 82.7702 117.717C82.7702 117.717 82.7702 117.717 82.7223 117.717L82.1961 117.574L81.6698 117.43L81.1914 117.287L80.713 117.143L80.2345 117L79.7561 116.808C79.7561 115.517 79.7083 113.986 79.7561 112.694C80.5694 112.742 81.4784 112.981 82.2439 112.981C82.4831 112.646 82.818 112.215 83.2007 111.785C83.5835 111.354 83.9662 110.972 84.4446 110.732C84.7795 110.541 85.0187 110.493 85.1144 110.589C85.2101 110.685 85.2579 110.876 85.2101 111.163C85.1623 111.402 85.0187 111.737 84.8274 112.024C84.636 112.311 84.3968 112.55 84.1576 112.694C84.1576 112.694 84.2533 112.694 84.349 112.742C84.4925 112.742 84.6838 112.79 84.9231 112.79C85.1623 112.79 85.4493 112.79 85.7842 112.79C86.1191 112.742 86.454 112.742 86.7889 112.646C87.0759 112.598 87.4108 112.55 87.6979 112.55C88.0806 112.598 88.4634 112.646 88.7504 112.742C89.7551 113.077 89.8029 113.412 89.468 113.746C89.1331 114.033 88.3677 114.273 87.6979 114.368C87.6979 114.368 88.1285 114.321 88.6069 114.321C89.0853 114.321 89.6594 114.321 89.9943 114.512C90.6162 114.847 89.5637 115.564 88.0328 115.851C88.0328 115.851 88.559 115.804 89.1331 115.851C89.7072 115.899 90.2813 115.947 90.377 116.186C90.4727 116.378 90.1378 116.617 89.6594 116.808C89.4202 116.904 89.1331 117 88.8461 117.048C88.6069 117 88.3198 117.048 88.0328 117.048Z" fill="#F9AC80"/>
<path d="M81.381 112.886L80.9504 117.096C79.4194 116.952 77.9842 116.665 76.6925 116.235C76.0227 116.043 75.3529 115.756 74.5874 115.421C74.4439 115.373 74.3482 115.278 74.2047 115.23C74.1568 115.23 74.109 115.182 74.0611 115.182H74.0133C73.9655 115.182 73.9655 115.134 73.9176 115.134C73.8219 115.086 73.6784 114.991 73.487 114.895L73.0086 114.608C72.9608 114.56 72.8651 114.512 72.8173 114.464L72.578 114.321C71.2863 113.46 70.1381 112.503 69.1813 111.403C68.1766 110.254 67.3154 109.01 66.6457 107.719C66.2629 106.953 65.928 106.14 65.641 105.327C64.9712 103.269 64.732 101.069 64.8755 98.9158C65.0669 95.9017 66.0715 92.9834 67.7939 90.4478L71.2863 92.8398C69.9946 94.7057 69.2291 96.9064 69.0856 99.2028C68.9421 100.973 69.2291 102.839 69.8511 104.513C69.9946 104.944 70.186 105.327 70.3773 105.757C70.9036 106.762 71.5255 107.719 72.291 108.58C73.0565 109.393 73.9176 110.159 74.8745 110.781L75.0658 110.924C75.0658 110.924 75.1137 110.924 75.1137 110.972C75.1615 110.972 75.1615 111.02 75.2094 111.02L75.6399 111.259H75.6878C75.6878 111.259 75.7835 111.307 75.8313 111.307C75.8791 111.355 75.927 111.355 76.0227 111.403C76.0705 111.45 76.1183 111.45 76.1662 111.498C76.214 111.546 76.3097 111.594 76.3576 111.594C76.9317 111.833 77.4579 112.072 77.9363 112.216C79.0367 112.551 80.1849 112.742 81.381 112.886Z" fill="#F9AC80"/>
<path d="M69.5639 103.509C69.6596 103.843 69.7553 104.178 69.8988 104.513C69.8988 104.513 69.4682 105.279 65.6887 105.279C65.5452 104.848 65.4495 104.418 65.3538 104.035C64.9711 102.36 64.8276 100.638 64.9711 98.8679C65.1625 95.8539 66.1671 92.9355 67.8894 90.3999L71.3819 92.792C70.0902 94.6578 69.3247 96.8586 69.1812 99.155C68.9898 100.59 69.1333 102.073 69.5639 103.509Z" fill="#FFB838"/>
<path d="M69.8511 104.465C69.8511 104.465 69.4206 105.231 65.641 105.231C65.4975 104.8 65.4018 104.369 65.3062 103.987C66.3108 103.939 68.1767 103.795 69.5641 103.508C69.6598 103.843 69.7554 104.178 69.8511 104.465Z" fill="#B28534"/>
</svg>
