<svg width="76" height="96" viewBox="0 0 76 96" fill="none" xmlns="http://www.w3.org/2000/svg">
<path d="M45.2333 9.70599C30.1707 5.71774 14.7224 13.7772 9.15056 27.9463C15.7134 36.1767 24.888 42.4172 35.83 45.3091C46.7719 48.201 57.8176 47.3 67.5699 43.4364C69.7765 28.3646 60.3341 13.7084 45.2333 9.70599Z" fill="url(#paint0_linear)"/>
<path d="M45.2332 9.7063C45.2332 9.7063 23.4172 15.9212 18.084 36.7099C21.2817 39.1177 24.7363 41.1856 28.5289 42.8131C34.7917 19.7576 45.2332 9.7063 45.2332 9.7063Z" fill="#E9E9E9"/>
<path d="M43.3625 46.7163C47.4669 47.1535 51.4982 47.0846 55.4661 46.6004C61.1053 25.9254 45.2339 9.70654 45.2339 9.70654C45.2339 9.70654 49.3817 23.6137 43.3625 46.7163Z" fill="#E9E9E9"/>
<path d="M48.0862 66.8016L28.7418 72.1066L14.539 58.0755L33.8833 52.7705L48.0862 66.8016Z" fill="#D6AD97"/>
<path d="M48.0865 66.8022L43.3652 84.4224L23.9826 89.7131L28.7421 72.1072L48.0865 66.8022Z" fill="#C5A08B"/>
<path d="M28.742 72.1073L23.9824 89.7132L9.77953 75.6821L14.5391 58.0762L28.742 72.1073Z" fill="#B78D75"/>
<path d="M32.1823 87.4491L36.497 86.2665L41.1658 68.6704L36.8511 69.853L32.1823 87.4491Z" fill="#F4F4F4"/>
<path d="M14.4644 80.2971L17.6116 83.4263L22.3088 65.7537L19.1616 62.6245L14.4644 80.2971Z" fill="#D9D9D9"/>
<path d="M48.0862 66.8016L28.7418 72.1066L14.539 58.0755L33.8833 52.7705L48.0862 66.8016Z" fill="#D6AD97"/>
<path d="M22.6339 55.8602L36.8751 69.9055L41.1657 68.6704L26.8961 54.7016L22.6339 55.8602Z" fill="#E9E9E9"/>
<path d="M41.6536 60.449L38.5064 57.3198L19.162 62.6248L22.3092 65.754L41.6536 60.449Z" fill="#E9E9E9"/>
<path d="M9.43247 28.008L30.6083 61.6988L67.2878 43.3756" stroke="#99AAB7" stroke-width="1.15164" stroke-miterlimit="10"/>
<path d="M30.6086 61.6989L25.498 38.5518" stroke="#99AAB7" stroke-width="1.15164" stroke-miterlimit="10"/>
<path d="M30.6078 61.6983L46.497 44.1369" stroke="#99AAB7" stroke-width="1.15164" stroke-miterlimit="10"/>
<defs>
<linearGradient id="paint0_linear" x1="13.088" y1="17.3541" x2="69.4799" y2="38.3167" gradientUnits="userSpaceOnUse">
<stop stop-color="#1C47C1"/>
<stop offset="1" stop-color="#50AFFF"/>
</linearGradient>
</defs>
</svg>
