<svg width="42" height="54" viewBox="0 0 42 54" fill="none" xmlns="http://www.w3.org/2000/svg">
<path d="M33.273 32.5338L24.0299 40.5396L12.5282 36.5591L21.7713 28.5532L33.273 32.5338Z" fill="#D6AD97"/>
<path d="M33.271 32.5337L35.3094 43.4659L26.0415 51.474L24.028 40.5396L33.271 32.5337Z" fill="#C5A08B"/>
<path d="M24.0276 40.5396L26.0412 51.474L14.5394 47.4935L12.5259 36.5591L24.0276 40.5396Z" fill="#B78D75"/>
<path d="M29.9558 48.072L32.0176 46.2867L29.9567 35.3815L27.8949 37.1669L29.9558 48.072Z" fill="#F4F4F4"/>
<path d="M18.3305 48.7994L20.8844 49.6925L18.8191 38.7378L16.2651 37.8447L18.3305 48.7994Z" fill="#D9D9D9"/>
<path d="M33.273 32.5338L24.0299 40.5396L12.5282 36.5591L21.7713 28.5532L33.273 32.5338Z" fill="#D6AD97"/>
<path d="M16.3949 33.2109L27.9214 37.1892L29.9562 35.3813L18.4341 31.4526L16.3949 33.2109Z" fill="#E9E9E9"/>
<path d="M28.062 30.7315L25.5081 29.8384L16.265 37.8443L18.8189 38.7373L28.062 30.7315Z" fill="#E9E9E9"/>
<path d="M1.80879 21.3663L22.3166 34.3245L37.6689 14.5994" stroke="#99AAB7" stroke-width="1.15164" stroke-miterlimit="10"/>
<path d="M22.3167 34.3245L13.4175 22.939" stroke="#99AAB7" stroke-width="1.15164" stroke-miterlimit="10"/>
<path d="M22.3165 34.3247L26.4355 20.4872" stroke="#99AAB7" stroke-width="1.15164" stroke-miterlimit="10"/>
<path d="M16.6837 1.88389C7.35093 3.65261 0.975051 12.1485 1.63784 21.4065C7.412 24.2065 14.0992 25.2252 20.8774 23.9374C27.6557 22.6497 33.4933 19.2487 37.8403 14.5586C35.0893 5.68941 26.0413 0.11292 16.6837 1.88389Z" fill="url(#paint0_linear)"/>
<path d="M16.6834 1.88334C16.6834 1.88334 6.32033 11.0398 8.85565 23.8755C11.2476 24.3585 13.6914 24.5871 16.2052 24.4845C13.5849 10.1576 16.6834 1.88334 16.6834 1.88334Z" fill="#E9E9E9"/>
<path d="M25.3896 22.7297C27.7618 21.8905 29.9607 20.7923 32.0155 19.4822C29.6784 6.62854 16.6836 1.88379 16.6836 1.88379C16.6836 1.88379 22.6228 8.44103 25.3896 22.7297Z" fill="#E9E9E9"/>
<defs>
<linearGradient id="paint0_linear" x1="1.01707" y1="14.5455" x2="37.5441" y2="11.2406" gradientUnits="userSpaceOnUse">
<stop stop-color="#1C47C1"/>
<stop offset="1" stop-color="#50AFFF"/>
</linearGradient>
</defs>
</svg>
