<svg width="56" height="36" viewBox="0 0 47 46" fill="none" xmlns="http://www.w3.org/2000/svg">
  <ellipse cx="23.7117" cy="22.9728" rx="22.98" ry="22.9728" fill="#3470F6"/>
  <path d="M24.3957 23.5739C23.987 23.5739 23.5784 23.4329 23.2439 23.1489L16.1202 17.1373C15.8978 16.9505 15.8693 16.6169 16.0555 16.3939C16.2418 16.1709 16.5744 16.1423 16.7968 16.3291L23.9205 22.3426C24.1942 22.5751 24.5914 22.5751 24.8651 22.3426L31.9888 16.3291C32.2112 16.1404 32.5438 16.1709 32.7301 16.3939C32.9164 16.6169 32.8879 16.9505 32.6655 17.1373L25.5456 23.1508C25.213 23.4329 24.8043 23.5739 24.3957 23.5739Z" fill="white"/>
  <path d="M31.8003 29.8016H17.0397C15.9734 29.8016 15.1067 28.9325 15.1067 27.8632V16.8388C15.1067 15.7695 15.9734 14.9004 17.0397 14.9004H31.8003C32.8665 14.9004 33.7333 15.7695 33.7333 16.8388V27.8651C33.7333 28.9325 32.8665 29.8016 31.8003 29.8016ZM17.0397 15.9563C16.555 15.9563 16.1616 16.3509 16.1616 16.8369V27.8632C16.1616 28.3493 16.555 28.7438 17.0397 28.7438H31.8003C32.2849 28.7438 32.6784 28.3493 32.6784 27.8632V16.8388C32.6784 16.3528 32.2849 15.9582 31.8003 15.9582L17.0397 15.9563Z" fill="white"/>
</svg>
