<svg width="56" height="36" viewBox="0 0 56 56" fill="none" xmlns="http://www.w3.org/2000/svg">
  <circle cx="28" cy="28" r="28" fill="#3470F6"/>
  <path fill-rule="evenodd" clip-rule="evenodd" d="M20.9515 29.8905L15.0155 27.6544C14.4125 27.4265 14.4077 26.5674 15.0084 26.3333L39.3688 16.8483C39.8854 16.6469 40.4184 17.1033 40.3052 17.6507L35.9338 38.8748C35.8308 39.3763 35.249 39.6034 34.8378 39.3017L28.8703 34.9289C28.5079 34.6637 28.0141 34.6777 27.6674 34.9631L24.3582 37.6852C23.9745 38.0024 23.3959 37.8259 23.2488 37.3478L20.9515 29.8905ZM34.4789 21.4894L22.8782 28.7002C22.4332 28.9778 22.2241 29.5197 22.3679 30.0266L23.622 34.4749C23.7108 34.7898 24.1645 34.7579 24.2077 34.4321L24.534 31.993C24.5953 31.5335 24.8123 31.1105 25.1488 30.7941L34.7227 21.8121C34.9019 21.6441 34.6873 21.3596 34.4789 21.4894Z" fill="white"/>
</svg>
