<svg width="57" height="36" viewBox="0 0 57 56" fill="none" xmlns="http://www.w3.org/2000/svg">
  <circle cx="28.666" cy="28" r="28" fill="#3470F6"/>
  <path fill-rule="evenodd" clip-rule="evenodd" d="M27.9859 23.7504L28.0335 24.5359L27.2395 24.4397C24.3493 24.071 21.8244 22.8205 19.6806 20.7203L18.6325 19.6783L18.3625 20.4478C17.7909 22.1632 18.1561 23.9748 19.3471 25.1932C19.9823 25.8666 19.8394 25.9628 18.7437 25.562C18.3625 25.4337 18.0291 25.3375 17.9973 25.3856C17.8861 25.4978 18.2673 26.9568 18.569 27.5339C18.9819 28.3355 19.8235 29.1211 20.7445 29.586L21.5227 29.9547L20.6016 29.9708C19.7123 29.9708 19.6806 29.9868 19.7759 30.3235C20.0935 31.3655 21.348 32.4717 22.7454 32.9527L23.73 33.2894L22.8725 33.8024C21.6021 34.5399 20.1093 34.9567 18.6166 34.9888C17.902 35.0048 17.3145 35.0689 17.3145 35.117C17.3145 35.2773 19.2518 36.1751 20.3793 36.5278C23.7618 37.5699 27.7794 37.121 30.7966 35.3415C32.9404 34.0749 35.0843 31.5579 36.0847 29.1211C36.6246 27.8225 37.1645 25.4497 37.1645 24.3115C37.1645 23.574 37.2122 23.4778 38.1015 22.5961C38.6255 22.083 39.1178 21.5219 39.2131 21.3616C39.3719 21.057 39.356 21.057 38.5461 21.3295C37.1963 21.8105 37.0057 21.7464 37.6727 21.0249C38.165 20.5119 38.7526 19.5821 38.7526 19.3095C38.7526 19.2614 38.5143 19.3416 38.2444 19.4859C37.9585 19.6462 37.3233 19.8867 36.8469 20.031L35.9894 20.3035L35.2113 19.7744C34.7825 19.4859 34.1791 19.1652 33.8615 19.069C33.0516 18.8446 31.813 18.8767 31.0825 19.1332C29.0975 19.8546 27.8429 21.7143 27.9859 23.7504Z" fill="white"/>
</svg>
