<svg width="57" height="36" viewBox="0 0 57 56" fill="none" xmlns="http://www.w3.org/2000/svg">
  <circle cx="28.334" cy="28" r="28" fill="#3470F6"/>
  <path d="M42.2813 21.074C41.9503 19.8384 40.9576 18.8629 39.7002 18.5215C37.4334 17.9199 28.3334 17.9199 28.3334 17.9199C28.3334 17.9199 19.2334 17.9199 16.9502 18.5215C15.6927 18.8466 14.7165 19.8221 14.3691 21.074C13.7734 23.3176 13.7734 27.9999 13.7734 27.9999C13.7734 27.9999 13.7734 32.6822 14.3856 34.9259C14.7165 36.1615 15.7093 37.137 16.9667 37.4784C19.2334 38.0799 28.3334 38.0799 28.3334 38.0799C28.3334 38.0799 37.4334 38.0799 39.7167 37.4784C40.9742 37.1532 41.9503 36.1777 42.2978 34.9259C42.8934 32.6822 42.8934 27.9999 42.8934 27.9999C42.8934 27.9999 42.8934 23.3176 42.2813 21.074ZM25.3553 32.2595V23.7403L32.9662 27.9999L25.3553 32.2595Z" fill="white"/>
</svg>
